<svg xmlns="http://www.w3.org/2000/svg" xmlns:xlink="http://www.w3.org/1999/xlink" viewBox="0 0 1197.72 566.77"><defs><style>.cls-1{fill:none;}.cls-2{opacity:0.4;}.cls-3{clip-path:url(#clip-path);}.cls-4,.cls-6{fill:#a3dbef;stroke:#a3dbef;stroke-miterlimit:10;}.cls-4{stroke-width:5.82px;}.cls-5{clip-path:url(#clip-path-2);}.cls-6{stroke-width:4.92px;}</style><clipPath id="clip-path" transform="translate(0 -0.97)"><rect class="cls-1" x="3.59" width="844.13" height="439.63" rx="12.67" transform="translate(851.31 439.63) rotate(-180)"/></clipPath><clipPath id="clip-path-2" transform="translate(0 -0.97)"><rect class="cls-1" x="638.67" width="557.92" height="439.63" rx="12.67"/></clipPath></defs><title>Onde_ok_back</title><g id="Livello_2" data-name="Livello 2"><g id="Livello_1-2" data-name="Livello 1"><g class="cls-2"><g class="cls-3"><path class="cls-4" d="M671.88,434.11c6.9-15.92,46.53-107.36,38.23-162.6-2.39-15.94-8.4-26.51-19.11-45.17-2.33-4.06-17.51-30.22-35.43-43.66-45-33.76-138.08-10.25-140.56,51.19-.42,10.27,1.83,18.45,3.37,24.09,16.51,60.2,76.15,20.7,76.47,0,.1-6.43-5.44-16.26-9-15.06a3.34,3.34,0,0,0-2.25,3c-.26,2.4,1.23,4.37,1.13,6-.36,6-21.84,7.09-22.49-3-.35-5.38,5.32-12.42,7.87-15,16.25-16.79,38.33,8.62,38.23,27.1,0,6.1-2.48,11.89-10.12,21.08-14.81,17.8-35.54,32-96.7,21.08-4.35-.78-12.56-2.4-22.49-12.05-4.09-4-11.07-10.5-15.75-21.08-12.59-28.44-14.34-86.63-7.87-117.43a108.89,108.89,0,0,0,2.25-12C460.73,114.86,454,88.18,452,80.3,433.4,6.17,364.71,18.23,354.2,20.07a87,87,0,0,0-12.37,3C319,30.1,299,36.26,295.73,62.23,294.15,74.75,297,87.76,298,92.34c11.63,53.51,49.41,41.18,73.09,33.13.57-.2,4.74-1.74,9-9,1.71-2.94,2.95-5.13,3.37-9,1.06-9.79-3.61-24.89-7.87-24.09-2.33.44-4.69,5.67-4.5,9,.16,2.84,2.07,3.11,2.25,6,.25,3.92-2.9,8.37-3.37,9-6.51,9.18-21.61,13.66-23.62,0-1.19-8.15,2.59-20.55,5.63-27.1,15.43-33.3,50.84.08,51.72,30.11.2,6.82-1.38,13.24-4.5,21.08-20.22,50.93-60.6,50.11-91.08,21.08-7.65-7.29-15.75-15-24.74-33.13-14-28.14-15.57-52.16-28.11-75.28-3.57-6.58-10.82-18.22-29.24-27.1-14.42-6.94-47.8-27.38-87.71,3C136,21.81,128,24.72,119.18,38.14c-5.36,8.19-15.11,23.08-15.74,45.17-.53,18.3,5.45,33.13,7.87,39.14,0,0,24.37,61.5,77.59,6a17.46,17.46,0,0,0,3.37-6c2.08-6,3.14-15.7,2.25-24.08-2-18.71-12.72-21.65-13.49-18.07-.42,1.93,2.18,5.3,2.25,12,.1,9.33-4.73,16.7-5.62,18.07-8.7,13.27-23.51,6.38-25.87-12-1.38-10.79,1.87-22.74,2.25-24.09,12.6-45.09,63.93-13.84,66.35,21.07.25,3.64,0,8.23,0,9a84.54,84.54,0,0,1-11.25,39.14c-16.69,29.9-46.1,27.1-46.1,27.1-20.46-1.94-29.63-8.5-54-18.06-36-14.14-56.41-15.73-77.59-3C13.21,160.51,6.2,175,4.48,191.71c-1.54,15,1.43,29.19,2.25,33.12C21.61,296.1,82.33,256.26,84.32,255c6-4,8.13-11.09,9-15.06a62.7,62.7,0,0,0,1.12-18.07c-2.26-21.68-19.74-24.93-20.24-21.07-.27,2.09,4.56,5.61,4.5,12-.09,8.72-9.1,14.43-10.12,15.06-9.42,5.78-22.66,2.73-23.62-9-1-12.34,11.55-33.76,23.62-39.14,7.86-3.51,14.07.42,18,3,5.59,3.68,22.18,14.62,27,48.18,2.62,18.28.69,35.89,0,42.15C104.65,354.06,3.92,402.74,2.92,439.63.12,542.71,573,662.4,671.88,434.11Z" transform="translate(0 -0.97)"/></g><g class="cls-5"><path class="cls-6" d="M785.08,224.84C775.46,199.44,720,244.2,721.35,271c.41,8.06,6.14,19.24,7.23,21.07,10.57,17.81,25.38,32,69,21.08,3.1-.77,9-2.4,16-12A67.51,67.51,0,0,0,824.91,280c9-28.45,10.24-86.63,5.62-117.44-.58-3.85-1.13-6.51-1.61-12-2.19-25.66,2.6-52.34,4-60.22,13.3-74.13,62.34-62.07,69.84-60.23a47.84,47.84,0,0,1,8.83,3c16.28,7,30.58,13.18,32.91,39.15,1.13,12.51-.89,25.52-1.6,30.11-8.31,53.51-35.28,41.17-52.18,33.12-.41-.19-3.39-1.73-6.42-9a25.54,25.54,0,0,1-2.41-9c-.76-9.79,2.58-24.89,5.62-24.09,1.66.43,3.34,5.67,3.21,9-.12,2.84-1.48,3.11-1.61,6-.17,3.93,2.08,8.37,2.41,9,4.65,9.18,15.43,13.66,16.86,0,.85-8.15-1.85-20.55-4-27.1-11-33.31-36.29.08-36.92,30.11-.15,6.82,1,13.24,3.21,21.08,14.44,50.93,43.26,50.11,65,21.07,5.46-7.28,11.25-15,17.66-33.12,10-28.14,11.12-52.16,20.07-75.28C976,47.62,981.14,36,994.29,27.1c10.3-6.94,34.13-27.38,62.62,3,1.62,1.73,7.37,4.65,13.65,18.07,3.83,8.19,10.79,23.08,11.24,45.17a130.13,130.13,0,0,1-5.62,39.14s-17.4,61.5-55.39,6a20.64,20.64,0,0,1-2.41-6c-1.48-6-2.24-15.71-1.61-24.09,1.42-18.7,9.08-21.65,9.64-18.06.29,1.93-1.56,5.3-1.61,12a43.28,43.28,0,0,0,4,18.07c6.21,13.27,16.79,6.38,18.47-12,1-10.78-1.34-22.73-1.61-24.09-9-45.09-45.63-13.83-47.36,21.08-.18,3.64,0,8.23,0,9,.69,20.74,5.91,33.83,8,39.15,11.91,29.9,32.91,27.1,32.91,27.1,14.6-1.95,21.15-8.5,38.53-18.07,25.69-14.13,40.27-15.72,55.39-3,13,11,18,25.46,19.27,42.16a155.17,155.17,0,0,1-1.61,33.12c-10.62,71.27-54,31.43-55.39,30.11-4.29-4-5.8-11.08-6.42-15.05a87.23,87.23,0,0,1-.8-18.07c1.62-21.68,14.09-24.94,14.45-21.08.19,2.1-3.26,5.62-3.21,12.05.06,8.72,6.49,14.43,7.22,15,6.73,5.78,16.18,2.73,16.86-9,.72-12.34-8.24-33.76-16.86-39.15-5.61-3.5-10,.43-12.84,3-4,3.68-15.83,14.62-19.27,48.17-1.87,18.29-.49,35.9,0,42.16,6.36,81.05,120,103.64,120.69,140.52,2,103.08-448.64,248.87-519.26,20.58-4.93-15.92-33.22-107.37-27.3-162.6,1.71-15.94,6-26.51,13.65-45.17,1.66-4.06,12.49-30.23,25.29-43.66,32.14-33.76,119-23.3,120.77,38.14a152.11,152.11,0,0,1-1.95,28.1C794.68,319.17,758,294.25,761.75,275c2-10,17.37,3.08,23.33,0,3.89-2,4.18-11.47,4.86-16.06,1.45-9.85-.84-19.43-3.16-28.55A54.42,54.42,0,0,0,785.08,224.84Z" transform="translate(0 -0.97)"/></g></g></g></g></svg>