<svg xmlns="http://www.w3.org/2000/svg" viewBox="0 0 93.78 106.09"><defs><style>.cls-1{opacity:0.4;}.cls-2{fill:#619fac;}.cls-3{fill:#f29100;}.cls-4{fill:#f7c2be;}.cls-5{fill:#a3dbef;}.cls-6{fill:#10093e;}.cls-7{fill:#3d5984;}</style></defs><title>Pesci_logo</title><g id="Livello_2" data-name="Livello 2"><g id="Livello_1-2" data-name="Livello 1"><path class="cls-2" d="M54.28,77.58c2.56.23,3.13,4.13,5.42,4.17a3.49,3.49,0,0,0,2.88-2.25c1-2.33-1.71-4-3.89-7.27,0,0-.81-1.21-2.53-6.43-2.82-8.58.84-29.32,1.34-32.36C60.29,16.36,54.72.12,51.89,0S43.23,15.29,45,32.13s9.52,19.62,4.4,28.64c-4,7.13-4.35,11-5,18.77,0,0-.3,3.78,1.23,4C47.7,83.85,50.87,77.27,54.28,77.58Z"/><path class="cls-3" d="M34.56,100.11c2.56.23,3.13,4.14,5.42,4.18A3.53,3.53,0,0,0,42.87,102c1-2.33-1.72-4-3.89-7.27,0,0-.82-1.21-2.53-6.43C33.63,79.75,37.28,59,37.78,56,40.57,38.89,35,22.65,32.17,22.53s-8.66,15.29-6.91,32.13,9.53,19.62,4.41,28.65c-4.05,7.13-4.35,11-5,18.77,0,0-.29,3.77,1.24,4C28,106.39,31.15,99.8,34.56,100.11Z"/><path class="cls-4" d="M72.59,93.07c2.55.23,3.13,4.13,5.41,4.17A3.49,3.49,0,0,0,80.89,95c1-2.33-1.72-4-3.89-7.27,0,0-.82-1.21-2.53-6.43-2.82-8.58.84-29.32,1.33-32.36C78.6,31.85,73,15.61,70.2,15.49s-8.66,15.29-6.92,32.13,9.53,19.62,4.41,28.64c-4,7.13-4.35,11-5,18.77,0,0-.3,3.78,1.23,4C66,99.35,69.17,92.76,72.59,93.07Z"/><path class="cls-5" d="M88.18,71.12c1.69.15,2.07,2.72,3.57,2.75a2.32,2.32,0,0,0,1.9-1.48c.63-1.54-1.13-2.66-2.56-4.79a21.46,21.46,0,0,1-1.67-4.23c-1.85-5.65.55-19.3.88-21.3,1.84-11.24-1.82-21.94-3.69-22s-5.7,10.06-4.55,21.15S88.33,54.12,85,60.06c-2.66,4.69-2.86,7.25-3.27,12.36,0,0-.19,2.48.82,2.63C83.86,75.25,85.94,70.92,88.18,71.12Z"/><path class="cls-6" d="M16.39,79.51c1.1.1,1.34,1.77,2.32,1.79a1.53,1.53,0,0,0,1.23-1c.41-1-.73-1.72-1.66-3.1a13.91,13.91,0,0,1-1.08-2.75c-1.2-3.66.36-12.52.57-13.82,1.19-7.29-1.19-14.23-2.4-14.28s-3.69,6.53-2.95,13.72,4.07,8.38,1.88,12.23c-1.72,3-1.85,4.71-2.12,8,0,0-.12,1.61.53,1.71C13.59,82.19,14.94,79.38,16.39,79.51Z"/><path class="cls-7" d="M6.51,65.49c1.68.15,2.06,2.72,3.56,2.75A2.33,2.33,0,0,0,12,66.75c.63-1.53-1.13-2.66-2.56-4.78a21.45,21.45,0,0,1-1.67-4.24c-1.85-5.64.56-19.29.88-21.3,1.84-11.24-1.82-21.93-3.69-22S-.77,24.49.38,35.57s6.27,12.92,2.9,18.86C.62,59.12.42,61.67,0,66.78c0,0-.2,2.49.81,2.64C2.18,69.62,4.26,65.29,6.51,65.49Z"/></g></g></svg>