<svg xmlns="http://www.w3.org/2000/svg" xmlns:xlink="http://www.w3.org/1999/xlink" viewBox="0 0 103.94 96.42"><defs><style>.cls-1{fill:none;}.cls-2{clip-path:url(#clip-path);}.cls-3{fill:#a3dbef;}.cls-4{clip-path:url(#clip-path-2);}.cls-5{fill:#3d5984;}.cls-6{fill:#f29100;}</style><clipPath id="clip-path" transform="translate(-6.41 -2.38)"><rect class="cls-1" width="88.9" height="75.17" rx="12.67" transform="translate(88.9 75.17) rotate(180)"/></clipPath><clipPath id="clip-path-2" transform="translate(-6.41 -2.38)"><rect class="cls-1" x="5.27" y="44.84" width="68.57" height="36.92" rx="12.67"/></clipPath></defs><title>Pesce_logo</title><g id="Livello_2" data-name="Livello 2"><g id="Livello_1-2" data-name="Livello 1"><g class="cls-2"><path class="cls-3" d="M83,75.94c.78-2.72,5.29-18.36,4.35-27.8a27.54,27.54,0,0,0-2.18-7.72c-.26-.7-2-5.17-4-7.47-5.12-5.77-15.7-1.75-16,8.75a19.06,19.06,0,0,0,.39,4.12c1.88,10.29,8.66,3.54,8.7,0,0-1.1-.62-2.78-1-2.57,0,0-.22.11-.25.51a9.87,9.87,0,0,0,.13,1c-.05,1-2.49,1.21-2.56-.51a5.38,5.38,0,0,1,.89-2.58c1.85-2.87,4.36,1.48,4.35,4.64a7.1,7.1,0,0,1-1.15,3.6c-1.68,3-4,5.47-11,3.6A4.27,4.27,0,0,1,61,51.48a11.74,11.74,0,0,1-1.79-3.6C57.79,43,57.59,33.07,58.33,27.8c.09-.66.18-1.11.25-2.06a44.07,44.07,0,0,0-.64-10.29C55.82,2.77,48,4.83,46.81,5.15a7.74,7.74,0,0,0-1.4.51c-2.6,1.2-4.87,2.26-5.25,6.7a23.77,23.77,0,0,0,.26,5.14c1.32,9.15,5.62,7,8.31,5.67.07,0,.54-.3,1-1.55a4.76,4.76,0,0,0,.38-1.54c.12-1.67-.41-4.26-.9-4.12-.26.07-.53,1-.51,1.54s.24.54.26,1a3.58,3.58,0,0,1-.39,1.55c-.74,1.57-2.45,2.34-2.68,0a14,14,0,0,1,.64-4.63c1.75-5.7,5.78,0,5.88,5.14a13,13,0,0,1-.51,3.61c-2.3,8.71-6.89,8.57-10.36,3.6a18.54,18.54,0,0,1-2.81-5.66c-1.59-4.81-1.77-8.92-3.2-12.87a9.44,9.44,0,0,0-3.33-4.64c-1.64-1.18-5.43-4.68-10,.52a7.3,7.3,0,0,0-2.18,3.09A19,19,0,0,0,18.29,16a23.49,23.49,0,0,0,.9,6.69S22,33.17,28,23.68a3.67,3.67,0,0,0,.39-1,16,16,0,0,0,.25-4.12c-.22-3.19-1.45-3.7-1.53-3.08-.05.33.24.9.25,2.05a7.85,7.85,0,0,1-.64,3.09c-1,2.27-2.67,1.09-2.94-2.06a16.7,16.7,0,0,1,.26-4.11c1.43-7.71,7.27-2.37,7.54,3.6,0,.62,0,1.41,0,1.54a20,20,0,0,1-1.28,6.7c-1.89,5.11-5.24,4.63-5.24,4.63-2.33-.33-3.37-1.45-6.14-3.09-4.09-2.42-6.42-2.69-8.83-.51C8,29.16,7.23,31.64,7,34.49a29.24,29.24,0,0,0,.26,5.67c1.69,12.18,8.6,5.37,8.83,5.15a4.84,4.84,0,0,0,1-2.58,15.62,15.62,0,0,0,.13-3.09C17,35.94,15,35.38,15,36c0,.36.51,1,.51,2.06a3.73,3.73,0,0,1-1.15,2.57c-1.08,1-2.58.47-2.69-1.54s1.31-5.77,2.69-6.69c.89-.6,1.6.07,2,.51.64.63,2.52,2.5,3.07,8.24a43.62,43.62,0,0,1,0,7.21c-1,13.85-9.09,20.46-9.21,26.77C9.91,92.79,71.69,115,83,75.94Z" transform="translate(-6.41 -2.38)"/></g><g class="cls-4"><path class="cls-5" d="M9.86,82.14c-.6-1.34-4.08-9-3.35-13.66a10,10,0,0,1,1.68-3.79A13.67,13.67,0,0,1,11.29,61c4-2.83,12.12-.86,12.34,4.3a6.21,6.21,0,0,1-.3,2c-1.45,5.05-6.68,1.73-6.71,0,0-.55.48-1.37.79-1.27a.28.28,0,0,1,.2.25c0,.2-.11.37-.1.51,0,.51,1.92.6,2-.25a2.09,2.09,0,0,0-.69-1.27c-1.42-1.41-3.36.73-3.35,2.28a2.7,2.7,0,0,0,.89,1.77c1.3,1.49,3.11,2.69,8.48,1.77a3.59,3.59,0,0,0,2-1,5.81,5.81,0,0,0,1.39-1.77c1.1-2.39,1.25-7.28.69-9.87a9,9,0,0,1-.2-1,14.3,14.3,0,0,1,.49-5.06c1.64-6.22,7.66-5.21,8.59-5.05a6.67,6.67,0,0,1,1.08.25c2,.59,3.76,1.11,4,3.29a7.42,7.42,0,0,1-.2,2.53c-1,4.49-4.34,3.45-6.41,2.78a1.65,1.65,0,0,1-.79-.76,1.71,1.71,0,0,1-.3-.76c-.09-.82.32-2.09.69-2,.21,0,.41.47.4.76s-.19.26-.2.5a1.41,1.41,0,0,0,.29.76c.58.77,1.9,1.15,2.08,0a4.74,4.74,0,0,0-.5-2.28c-1.35-2.79-4.46,0-4.54,2.53a4.33,4.33,0,0,0,.4,1.77c1.77,4.28,5.32,4.21,8,1.77A8.75,8.75,0,0,0,44,55.71c1.23-2.36,1.37-4.38,2.47-6.32A5.31,5.31,0,0,1,49,47.11c1.27-.58,4.2-2.3,7.7.26a4.35,4.35,0,0,1,1.68,1.51,6.88,6.88,0,0,1,1.38,3.8A7.92,7.92,0,0,1,59.05,56s-2.14,5.17-6.81.51a1.43,1.43,0,0,1-.3-.51,5,5,0,0,1-.19-2c.17-1.57,1.11-1.82,1.18-1.52s-.19.45-.2,1a2.68,2.68,0,0,0,.5,1.51c.76,1.12,2.06.54,2.27-1a5.61,5.61,0,0,0-.2-2c-1.11-3.79-5.61-1.16-5.82,1.77a6.09,6.09,0,0,0,0,.76,6.8,6.8,0,0,0,1,3.28,4.45,4.45,0,0,0,4,2.28c1.79-.16,2.6-.71,4.74-1.52,3.15-1.18,5-1.32,6.8-.25a4.35,4.35,0,0,1,2.37,3.54,8.56,8.56,0,0,1-.2,2.78c-1.3,6-6.63,2.64-6.8,2.53a1.94,1.94,0,0,1-.79-1.26,5,5,0,0,1-.1-1.52c.2-1.82,1.73-2.09,1.77-1.77s-.4.47-.39,1c0,.73.8,1.21.89,1.27.82.48,2,.23,2.07-.76a4.15,4.15,0,0,0-2.07-3.29,1.61,1.61,0,0,0-1.58.25,5.2,5.2,0,0,0-2.37,4,13.82,13.82,0,0,0,0,3.54c.78,6.81,7,10,7.1,13.15C66.2,90.42,18.54,101.31,9.86,82.14Z" transform="translate(-6.41 -2.38)"/></g><path class="cls-6" d="M31.37,84.77C31.07,89,27.08,90,27,93.8a5.79,5.79,0,0,0,2.21,4.7c2.35,1.51,4.16-2.93,7.51-6.6,0,0,1.25-1.38,6.6-4.34,8.8-4.86,29.81.62,32.89,1.36,17.3,4.16,34-5.43,34.16-10.11S95,64.94,77.84,68.26s-20.21,16.2-29.25,8c-7.15-6.48-11.09-6.89-19-7.7,0,0-3.83-.39-4.1,2.14C25.15,74.1,31.76,79.14,31.37,84.77Z" transform="translate(-6.41 -2.38)"/></g></g></svg>