<svg xmlns="http://www.w3.org/2000/svg" viewBox="0 0 132.13 43.6"><defs><style>.cls-1{fill:#a3dbef;}.cls-2{fill:#619fac;}.cls-3{fill:#3d5984;}.cls-4{fill:#f29100;}</style></defs><title>Pesciolini_logo</title><g id="Livello_2" data-name="Livello 2"><g id="Livello_1-2" data-name="Livello 1"><ellipse class="cls-1" cx="84.16" cy="24.75" rx="15.28" ry="14.8" transform="translate(-1.16 45.14) rotate(-29.83)"/><path class="cls-2" d="M5.91,28.77C5.75,31.22,2,31.85,2,34a3.35,3.35,0,0,0,2.22,2.72c2.25.86,3.83-1.73,6.88-3.88,0,0,1.15-.81,6.11-2.56,8.16-2.89,28.1.16,31,.58,16.42,2.3,31.86-3.38,31.91-6.1s-14.83-8-30.93-5.93S30.66,28.42,21.9,23.71C15,20,11.26,19.78,3.82,19.36c0,0-3.63-.2-3.81,1.27C-.24,22.6,6.13,25.49,5.91,28.77Z"/><path class="cls-3" d="M126.74,31.68c.24-3,3.83-3.74,3.89-6.44a4,4,0,0,0-2-3.38c-2.13-1.1-3.73,2.07-6.71,4.67,0,0-1.12,1-5.92,3-7.89,3.42-26.86-.66-29.64-1.22-15.61-3.11-30.56,3.64-30.69,7S69.55,45.4,85,43.15s18.08-11.45,26.29-5.51c6.49,4.69,10,5,17.15,5.65,0,0,3.45.31,3.68-1.5C132.42,39.37,126.43,35.71,126.74,31.68Z"/><ellipse class="cls-1" cx="68" cy="10.18" rx="4.3" ry="4.17" transform="translate(3.94 35.17) rotate(-29.83)"/><ellipse class="cls-2" cx="77.48" cy="4.11" rx="2.33" ry="2.25" transform="translate(8.22 39.08) rotate(-29.83)"/><ellipse class="cls-4" cx="72.08" cy="1.66" rx="1.7" ry="1.65" transform="translate(8.72 36.07) rotate(-29.83)"/></g></g></svg>