<svg id="Livello_1" data-name="Livello 1" xmlns="http://www.w3.org/2000/svg" viewBox="0 0 1027.82 466.62"><defs><style>.cls-1{fill:#c1e7f4;}.cls-2{fill:#a3dbef;}.cls-3{fill:#f8c87f;}.cls-4{fill:#f5ad40;}.cls-5{fill:#fdf1e0;}.cls-6{fill:#3d5984;}.cls-7{fill:#f7c2be;}.cls-8{fill:#619fac;}.cls-9{fill:#f29100;}.cls-10{fill:#10093e;}.cls-11{fill:#609dab;}.cls-12{fill:#80cdef;}.cls-13{fill:#a2daee;}.cls-14{fill:#a2dbef;}.cls-15{fill:#9dd5ea;}.cls-16{fill:#9fd7eb;}.cls-17{fill:#e3e2ed;}.cls-18{fill:#fff;}.cls-19{fill:#80cdee;}.cls-20{fill:#a1d9ed;}.cls-21{fill:#f6c1be;}.cls-22{fill:#f7c2bd;}.cls-23{fill:#fefefe;}</style></defs><title>Back</title><path class="cls-1" d="M1039.43,25.1c0,.14,0,.29,0,.44a3.13,3.13,0,0,1-2.42.8c-1,.06-2.08,0-3.12,0q-493.7,0-987.4,0c-1.86,0-3.86.54-5.55-.8,0-.15,0-.3,0-.45Z" transform="translate(-26.06 -25.1)"/><path class="cls-2" d="M41,25.55l2.64,0h992.73c1,0,2.08,0,3.12,0,7.5-.23,14.43,6.87,14.41,14.61-.09,25.43,0,50.87,0,76.31q0,179.87,0,359.73a15,15,0,0,1-4.17,11.11,13.34,13.34,0,0,1-10.26,4.41c-.4,0-.8,0-1.2,0H42.57a15.29,15.29,0,0,1-6.35-.92,14.91,14.91,0,0,1-9.1-10.68,21.94,21.94,0,0,1-.48-5q0-76.67,0-153.35c0-1.12,0-2.23,0-3.35a8.36,8.36,0,0,1-.21-3.3q0-12.54,0-25.07,0-13.23,0-26.46a5.65,5.65,0,0,1,.22-2.58l0-48.95c0-1,0-2.08,0-3.12a15.55,15.55,0,0,1,0-5.77c0-1,0-2.08,0-3.11V41.3A15.43,15.43,0,0,1,34,27.59,12,12,0,0,1,41,25.55Z" transform="translate(-26.06 -25.1)"/><path class="cls-3" d="M26.63,261q.21,14.52,0,29c-.1.2-.23.22-.39.05q0-13.77-.08-27.55A1.89,1.89,0,0,1,26.63,261Z" transform="translate(-26.06 -25.1)"/><path class="cls-4" d="M26.24,290.1l.39-.05c.14,9.45.16,18.91,0,28.37-.44-.21-.46-.61-.46-1Q26.21,303.76,26.24,290.1Z" transform="translate(-26.06 -25.1)"/><path class="cls-5" d="M26.62,203.17v5.77A7.78,7.78,0,0,1,26.62,203.17Z" transform="translate(-26.06 -25.1)"/><path class="cls-6" d="M57.26,485.33c-5.35,0-10.71.17-16.06.06a8.57,8.57,0,0,1-8-7.87c0-.72,0-1.44,0-2.16q0-77.48,0-154.94c0-1,.07-1.92.11-2.87,1.11-1.17,2.66-1,4-1.2a240.3,240.3,0,0,0,27.71-5.75c6.47-1.85,12.84-4,18.51-7.76,6.64-4.45,8-8.41,5.55-16q-.89-2.73-1.92-5.43c-4.76-12.45-1.93-23.3,6.77-33,5.22-5.86,11.8-9.48,19-12.18a106.25,106.25,0,0,1,43.79-6.74c8.88.5,17.65,1.93,26,5.37a32.22,32.22,0,0,1,4.62,2.51c5.86,3.6,6.09,10.9,3.88,15.76a8.15,8.15,0,0,1-4.72,4.2,87.31,87.31,0,0,1-22.89,5,38.46,38.46,0,0,1-10.5,0,20.7,20.7,0,0,1-6.2-1.76,7.85,7.85,0,0,1-4.45-6.91c-.16-2.63,1.28-3.77,3.74-2.9,1.66.59,3.16,1.56,4.77,2.26a24.28,24.28,0,0,0,16.39,1.53,16,16,0,0,0,9.95-7.78c2.23-3.88,1.29-6.67-2.81-8.55a27.11,27.11,0,0,0-10-2.25,91.77,91.77,0,0,0-35.89,5c-4.44,1.59-8.67,3.65-12,7.22a9.15,9.15,0,0,0-2.53,7.67c.62,5.93,3.69,10.68,7.47,15A46.52,46.52,0,0,0,140,283.53a69.74,69.74,0,0,0,26.27,4.83c11.33-.1,22.22-2.37,32.12-8.33,10.51-6.33,16.44-15.78,18.45-27.62,1.66-9.82-2.66-17.2-10.66-22.7s-17.08-8.32-26.4-10.42a225.49,225.49,0,0,0-36.79-5c-6.3-.37-12.59-.9-18.9-.9-1.72,0-3.12-.39-3-2.48.61-10.78,2.09-21.34,7.83-30.81,5.44-9,13.68-13.89,23.67-16.18a118.5,118.5,0,0,1,13.5-2.15,18.18,18.18,0,0,1,6.44.42c4.47,1.09,6.93,4.18,6.38,8.75a23.56,23.56,0,0,1-7.6,14.84,10.1,10.1,0,0,1-2.18,1.48,2.82,2.82,0,0,1-3.17,0,2.78,2.78,0,0,1-1-3c.34-1.89.9-3.73,1.32-5.6,1.08-4.72-.72-6.83-5.63-7.08-12.51-.64-24.35,10.72-21.52,26,.88,4.72,3.57,6.7,8.41,6.81,6.36.16,11.83-2.42,17.2-5.34a75.21,75.21,0,0,0,16.4-12c7.16-6.9,11.72-15.19,11.78-25.4a25.93,25.93,0,0,0-1-8.3c-1.53-4.56-4.81-7.44-9.23-9.12C177,142.1,171,142,165.1,142.52a77,77,0,0,0-21.4,5.1,72.77,72.77,0,0,0-21.1,13.08C110.71,171,100.89,183,92,195.87c-3.39,4.87-6.58,9.85-9.62,14.93a5.62,5.62,0,0,1-5.66,3.14,26.87,26.87,0,0,0-6.7.26,2.86,2.86,0,0,1-3-1A76.72,76.72,0,0,1,57.53,197a2.15,2.15,0,0,1-.09-1.18c2.45-4.37,5.86-8,8.93-11.93.91-1.15,1.58-2.61,3.21-3,1,.21,1.39,1,1.89,1.74a26.48,26.48,0,0,0,5,5.18,9.56,9.56,0,0,0,11.81.48c4.41-2.93,7.28-7.19,9.71-11.7,6.15-11.39,9.6-23.68,11.56-36.42.12-.79-.25-1.83.87-2.25,4.55-4.38,9.05-8.82,13.65-13.14A356.34,356.34,0,0,1,194.5,72.9a304.32,304.32,0,0,1,55.24-24.14A318.42,318.42,0,0,1,294.4,38q13.58-2.3,27.28-3.65c7-.71,14-1.21,21-1.64,31.79-2,63.62-.65,95.43-1,5.84-.06,11.63.89,17.4,1.66q15.32,2.05,30.36,5.61a297.55,297.55,0,0,1,72.56,26.93,175,175,0,0,1,33.07,22.42,85.6,85.6,0,0,1,7.82,7.77c.06,1.44-1.15,1.59-2.07,1.9q-13.93,4.69-27.34,10.72c-3,1.34-5.85,2.89-8.8,4.3a5,5,0,0,1-3.17.81c-2.27-1.11-3.94-3-5.74-4.65a345.38,345.38,0,0,0-36.77-30.34c-17.35-12.16-35.85-22-56.71-26.66a108.5,108.5,0,0,0-20.18-2.55,75.37,75.37,0,0,0-22.06,2,10.49,10.49,0,0,0-4.14,1.82c-.43.35-.93.74-.68,1.39.2.49.73.58,1.2.68a3.49,3.49,0,0,0,1,.1c4.8-.25,9.57.39,14.36.53,22.38.64,44,4.66,64.08,15a104.67,104.67,0,0,1,41.36,38.3c2.83,4.52,5.77,9,7.38,14.2-.1,1.55-1.46,2-2.46,2.7-7.93,5.6-15.33,11.75-21.19,19.58-1.63,2.18-3,4.54-4.39,6.86-.42.7-.67,1.74-1.9,1.4a16.78,16.78,0,0,1-4.28-4.49,153,153,0,0,0-16.37-19.1,215.82,215.82,0,0,0-28.16-23.47,243.8,243.8,0,0,0-22.73-14.33,113.08,113.08,0,0,0-31.75-11.33c-15.35-3.2-30.82-5.94-46.45-7.12A107.85,107.85,0,0,0,310,83.06a70.48,70.48,0,0,0-8.9,4.68,1.73,1.73,0,0,0-1,1.21c4.26-.4,8.37-1.31,12.53-1.88,9.27-1.28,18.56-2.39,27.94-2.11,8.41.25,16.73,1.31,24.65,4.47,11.12,4.45,18.05,12.5,21.21,24a52.82,52.82,0,0,1,1.82,17.09,17.94,17.94,0,0,1-7.82,14,63.63,63.63,0,0,1-27.24,11.27,29.43,29.43,0,0,1-8.59.27c-8.12-1.07-13.71-5.48-16.91-12.86-2.58-6-3.87-12.21-2.79-18.73,1.17-7,5.52-11.21,12.28-12.86a26.39,26.39,0,0,1,18.19,2.28c4.59,2.24,8.15,6.27,4.77,13.27a6.35,6.35,0,0,0-.44,1.12c-.26,1-.47,2,.55,2.58s1.83,0,2.58-.64c6.24-5.46,5-16.71-2.32-20.5a25.62,25.62,0,0,0-9-2.5c-9-1-17.94-2.22-27-.36-9.32,1.92-16.75,6.93-23,13.89a128.09,128.09,0,0,0-12.79,17.07,40.27,40.27,0,0,0-4.92,10.62c-2.21,7.82.78,13.42,7.7,17.47,4.64,2.71,9.8,3.82,15,4.77a108.11,108.11,0,0,0,19.82,1.46,177.58,177.58,0,0,0,41.8-5c15.24-3.73,30.19-8.45,45.22-12.89,7.07-2.08,14.17-4,21.62-4.08,8.93-.09,16.57,3.24,23.09,9.13a83.49,83.49,0,0,1,17.72,22.22c2.94,5.42,4.92,11.07,4.6,17.38a14.87,14.87,0,0,1-3.87,9.56,31.42,31.42,0,0,1-10.11,7.57c-11.43,5.42-23.57,7.86-36.11,8.94-17.65,1.51-34.49-2.3-51.2-7.22-13.59-4-27.23-7.78-41.28-9.82-23.84-3.46-46.67-.33-68.46,10.13A100.92,100.92,0,0,0,241.81,237a85.76,85.76,0,0,0-19.28,28.67c-3.89,9.43-5.58,19.32-7.08,29.3a193.72,193.72,0,0,0-1.81,20.52,65.52,65.52,0,0,0,2,19.49c.3,1.14.83,2.28.36,3.51-.68.95-1.73,1-2.77,1.18a495.41,495.41,0,0,0-53.86,10.52C142,354.72,125.06,360.47,109.2,369c-13.9,7.49-26.15,16.93-35,30.31a70.94,70.94,0,0,0-4.41,8A6.75,6.75,0,0,1,67,409.48a88.09,88.09,0,0,0-24.29,20c-4.33,5-5.23,10.89-4.14,17.1,1.78,10.11,6.53,19,11.84,27.61,1.84,3,3.83,5.9,5.85,8.79C56.78,483.69,57.56,484.3,57.26,485.33Z" transform="translate(-26.06 -25.1)"/><path class="cls-7" d="M69.27,407.21c5.26-11.87,13.8-21,24-28.77,10.89-8.3,23.06-14.27,35.75-19.22,15.73-6.14,32-10.45,48.48-14,11.47-2.45,23-4.34,34.63-6.12l3.79-.57c1-1,2.32-.94,3.55-1.11,5.33-.76,10.68-1.38,16-2,8.8-.93,17.59-1.82,26.42-2.45,8.46-.86,17-1.1,25.43-1.85,2.38-.22,4.77,0,7.15-.2,4.59-.82,9.26-.54,13.87-.73,6.54-.25,13.09-.51,19.63-.68,19.82-.54,39.64-.41,59.46-.44a23.75,23.75,0,0,1,4.3.2c2.68.73,5.41.39,8.12.35,6.95-.08,13.92-.32,20.86,0,11.81.58,23.63.55,35.44,1.24,5.09.3,10.21.42,15.32.61,8.94.34,17.87.83,26.8,1.3q10.29.54,20.57,1.12c6.54.37,13.08.76,19.61,1.22,5.81.41,11.63.73,17.45,1.15q11.83.86,23.66,1.72c6.93.52,13.85,1.11,20.78,1.62,10.6.78,21.18,1.72,31.77,2.62,9.79.83,19.58,1.74,29.36,2.65,11.06,1,22.12,2.05,33.17,3.2,2.3.24,4.65.17,6.86,1,1.52,1.59-.28,2.28-1,3-3.9,4-5.75,8.94-6.48,14.39a60.19,60.19,0,0,0,1.16,20,100,100,0,0,0,13.17,33.77c4.08,6.45,9,11.91,16.9,13.56a37.07,37.07,0,0,0,12.13.72c4.2-.5,8.43-.67,12.64-1.06a42.15,42.15,0,0,0,8.65-1.84,4.83,4.83,0,0,1,3-.38,2,2,0,0,1,.86.8c5.49,9.13,13.58,15.64,22.12,21.62,15.91,11.14,33.12,19.89,51.06,27.26a12,12,0,0,1,3.17,1.66c.75.76,1.57,1.49,1.42,2.73-1,0-2.08.06-3.12.06H436.83c-1,0-2.08,0-3.12,0-9.18-9.77-21.34-15.73-31.28-24.52-7.25-6.4-13.42-13.55-15.58-23.33-1.81-8.15-1.17-15.86,4.18-22.77,4.1-5.3,16.38-11.06,23.2-8.58,5,1.82,9.4,4.41,12.39,9,2.48,3.77,1.42,7-3,8.05a16.76,16.76,0,0,1-14.21-2.4c-2.37-1.68-2.6-3.38-1-5.9a1.08,1.08,0,0,0,.27-.89c-3.73-.63-8.41,2.34-9.46,6-1.16,4,.95,8.89,4.88,10.36a56.16,56.16,0,0,0,18.68,4c5.28.08,10.51.19,15.61-1.82,9.69-3.81,13.28-14.73,12.13-21.84-.65-4-3-6.82-6.2-9.05-5.95-4.13-12.76-5.79-19.79-6.77-10.83-1.52-21.33.78-31.85,2.83-8.4,1.64-16.59,4.24-25.06,5.51-9.62,1.45-19.19,1.55-28.27-2.57-7.83-3.56-13.41-9.18-15.08-18a9.85,9.85,0,0,1,2.81-9.25c7.13-7.18,15.91-10,25.8-8.92,6.1.67,10.53,4,12.32,10.21s-1.94,11.63-8.43,11.93a10.49,10.49,0,0,1-10-5.52,6.18,6.18,0,0,1-.45-5.11c.5-1.7-.36-1.83-1.63-1.33a6.43,6.43,0,0,0-3.19,2.79,9.23,9.23,0,0,0,3.2,12.56c6.76,3.84,14,6.57,21.79,6.78,9.88.26,20.3-4,24.84-15a14.54,14.54,0,0,0-1.87-15,31.41,31.41,0,0,0-14.47-11.05c-6.13-2.35-12.27-4.65-18.83-5.51a75.28,75.28,0,0,0-31.08,2.7c-1.15.34-2.3.69-3.47.95-11.13,2.47-19.1,8.83-24.08,19.11a63.56,63.56,0,0,1-9.53,14.63,36.08,36.08,0,0,1-6.59,5.9c-9.69,6.65-20.28,11.11-32.14,11.3S227,401.22,219.75,391c-3.92-5.52-3.59-9.75,1.1-14.58a23.2,23.2,0,0,1,18.09-7.35c6,.19,12.22,5.92,12.85,12a4.2,4.2,0,0,1-3.57,4.9c-4.46,1-8.4-.42-11.85-3.21a3,3,0,0,1-1-3.87,1.84,1.84,0,0,0-.74-2.67c-1.13-.65-2-.05-2.74.75-2.76,2.89-2.56,6.51.52,9a9.25,9.25,0,0,0,4,2.14c8.55,1.76,17.12,3.34,25.91,2.05,10.54-1.54,17-7.95,18.05-18.95.39-4-1.46-6.95-4.74-9.06a31.63,31.63,0,0,0-11.18-4.19c-8.47-1.66-16.92-3.2-25.62-3.51a84.77,84.77,0,0,0-30.44,4c-15,5-22,17.64-22.19,32,0,2.78,1.16,5.29,1.9,7.9a47.66,47.66,0,0,1-2.55,34.36,20,20,0,0,1-7.37,8.34,41.64,41.64,0,0,1-19.95,6.83,246.55,246.55,0,0,1-26.34.81,56.49,56.49,0,0,1-21.3-4.15A42.65,42.65,0,0,1,100,437.86c-3.14-2.61-3.47-5.61-1.12-8.86,3.83-5.31,14.11-10.15,22.29-4.72,1.84,1.22,4.25,2.49,3.69,5.09s-3.39,2.54-5.53,2.85a13.08,13.08,0,0,1-5-.19c-1.53-.36-3-.78-3-2.83,0-1-.72-1.19-1.51-1a4.41,4.41,0,0,0-3.06,2.81,2.91,2.91,0,0,0,.93,3.25,12.7,12.7,0,0,0,3,2.37c8,4.43,16.55,6.37,25.66,4.89,7.44-1.22,12.53-5.46,14.81-12.7a11.56,11.56,0,0,0-2.82-12,32.08,32.08,0,0,0-12.26-7.76c-8.65-3.34-17.66-4.89-26.88-5.67a98.49,98.49,0,0,0-30.25,2,57.61,57.61,0,0,0-7.13,2.1C71.05,407.8,70,408.75,69.27,407.21Z" transform="translate(-26.06 -25.1)"/><path class="cls-8" d="M511.47,154.19c1.2-2,2.35-4,3.62-5.89a68,68,0,0,1,12.74-14.2A121.74,121.74,0,0,1,540,124.78a5.5,5.5,0,0,0,.8-.86c1.87-2.11,4.4-3.31,6.76-4.7,3.4-2,6.69-4.24,10.38-5.73a4.94,4.94,0,0,0,2.47-.79,263.19,263.19,0,0,1,36.78-15.31c.8-.27,1.79-.29,2.18-1.28.71.44,1.4.11,2.07-.1a310.82,310.82,0,0,1,34.51-8.76c5.46-1.08,11-2,16.5-2.68,6.64-.84,13.28-1.55,20-2,3.75-.25,7.49-.28,11.24-.39,2-.06,3.94-.53,6-.4,12.53.79,25.09.08,37.62.58,5.27.21,10.54.1,15.79.42,6.37.39,12.75.6,19.11,1,5.81.33,11.61.78,17.39,1.43,8.93,1,17.85,2.12,26.73,3.63a312.43,312.43,0,0,1,39.5,9.4c.62.19,1.2.47,1.84.11,2.71.39,5.13,1.72,7.73,2.46,1.74.5,3.45,1.09,5.16,1.7,3,1.3,6.13,2.45,9.18,3.73,1,.4,2.2.56,2.38,2-.86,1.09-2.19,1.24-3.38,1.62a12.21,12.21,0,0,0-4.89,2.89c-2.85,2.78-2.71,6,.4,8.38a14.12,14.12,0,0,0,5.25,2.77c7.25,1.78,14.32,1.94,21-2.16,1.39-.85,2.17-2.31,3.52-3.18a1.37,1.37,0,0,1,.93-.07c4.45,1.72,8.41,4.34,12.47,6.78.45.27,1.15.77.37,1.49-3.44.78-7,.16-10.45.85-2.19.43-4.42.66-6.43,1.72-.63.32-1.43.63-1.41,1.46s.8,1.16,1.45,1.45c3.64,1.61,7.54,1.93,11.44,2.17a61.76,61.76,0,0,0,16.59-1.67c4,1.67,7.32,4.49,10.84,7,8.13,5.67,15.84,11.9,23.5,18.17a6.89,6.89,0,0,1,1.74,2.25c3.46,3.15,6.87,6.36,10.41,9.42,1.8,1.57,3.46,3.28,5.19,4.92a40.33,40.33,0,0,0,5,4.42c.9,0,1.42.68,1.94,1.25,3.92,4.2,8.42,7.79,12.43,11.89.57,1.14,2.82,1.49,1.65,3.46-1.71.55-3.48.25-5.21.3a8.57,8.57,0,0,0-6,2c-2.57.68-5.24.43-7.83.89a32.73,32.73,0,0,0-7,1.63c-.5.21-1.08.5-1.08,1.15s.61.9,1.11,1.11a24.31,24.31,0,0,0,5.57,1.39c8.1,1.4,16.26,1,24.4,1,1.45,0,2.9.08,4.56,0-1.07-.44-2.46.93-2.87-.9,2.26-1,4.6-.56,6.92-.36.46.24,1.25.76.47,1.05-2,.77-.81,1.6-.27,2.49a1.07,1.07,0,0,1,.1.89c-.57.9-2.31,1-2,2.4s2,1.34,3.12,1.75,2.67.33,4,.71c3,2.41,5.2,5.59,7.64,8.52,3.62,4.36,7,8.88,10.22,13.58a7.16,7.16,0,0,1,1.37,2.76c1.77,2.93,3.57,5.85,5.3,8.8a190.05,190.05,0,0,1,13.19,27.62,8,8,0,0,1,.28,3.07q0,53.21,0,106.42c0,1.6,0,3.19-.07,4.79-1.22-.27-1-1.33-1-2.13-2.47-19.12-5.5-38.15-9.51-57-3.47-16.28-7.46-32.43-13.39-48s-14.07-30.3-25.2-43c-3.38-3.86-7.13-7.38-11.81-9.67-6.17-3-10.65-1.56-13.69,4.59-2.5,5.08-3.39,10.66-4.27,16.18-1.93,12.23-1.16,24.39,1.3,36.47a202.9,202.9,0,0,0,16.25,48.31c2.27,4.68,4.88,9.2,8.69,12.87,3.63,3.5,6.72,3,8.74-1.67a46.71,46.71,0,0,0,3.45-15.63c.67-10.58-.49-20.93-4.77-30.77a44.4,44.4,0,0,0-7-11.42,7,7,0,0,0-1-1c-1.45-1.14-2.93-2.52-4.94-1.7-1.82.73-1.84,2.59-2.17,4.25-.77,3.95,0,8-.85,11.95-.09.38-.05.8-.12,1.19-.27,1.34-.48,3-2.05,3.21s-2-1.32-2.58-2.44a39,39,0,0,1-3-11.08,77,77,0,0,1-.22-21.5,14.46,14.46,0,0,1,1.4-4.82c1.58-3,4.29-3.83,7.23-2.05a28.26,28.26,0,0,1,6.89,6.25c7.77,9.32,14.76,19.12,19.05,30.61a108.53,108.53,0,0,1,6.08,28.28,146.79,146.79,0,0,1,.36,16.77,209.45,209.45,0,0,1-5,38.71c-.17.83-.25,1.9-1.32,2.08s-1.74-.69-2.38-1.39Q996.31,369,980.93,354.2c-19.15-18.51-38.74-36.56-60.88-51.53-11.3-7.63-23-14.57-36.48-17.76-4.67-1.1-9.41-1.94-14.25-1.05a3.58,3.58,0,0,1-2.34-.29,10.43,10.43,0,0,1-2.46-3.22c-7.23-11.72-17.19-20.58-29-27.38a108.5,108.5,0,0,0-39.67-13.72,123,123,0,0,0-38,1c-13.18,2.31-26,6-38.89,9.59s-26,5.63-39.35,4.81-26.26-3.06-38-9.71c-5.21-2.94-9.56-6.87-10.12-13.41a22.26,22.26,0,0,1,2.19-11.18A67.06,67.06,0,0,1,655,193.93c7.39-5.44,15.75-6.76,24.62-5.54,10.43,1.43,20.31,5.09,30.39,7.89,14.19,3.94,28.34,8,43,9.81,13.46,1.64,26.94,2,40.38-.2a40.6,40.6,0,0,0,11.92-3.55c4.31-2.16,7.74-5.12,8.48-10.28a15.46,15.46,0,0,0-1.12-7.27c-.35-1-1-2-.48-3.21,2-1.71,4.79-1.64,7-2.9,1.24-.7,2.66-1.08,3.95-1.73a14.12,14.12,0,0,1,11.58-.61,31.2,31.2,0,0,0,15.61,1.33c.6-.1,1.47,0,1.61-.76s-.69-1-1.2-1.34a21.54,21.54,0,0,1-1.8-1.19c-1.9-1.51-2.05-3-.6-4.95.56-.75,2-1.43.87-2.57s-2.31-.52-3.25.28c-6.51,5.52-14.42,6.56-22.47,6.88a109.13,109.13,0,0,1-13.89-.13c-2.66-.09-4.28-1.62-5.78-3.68a70.69,70.69,0,0,0-12.39-13.3,36,36,0,0,0-17.86-7.68c-8.89-1.31-17.68-.14-26.45,1.34-.39.06-.77.19-1.16.29-10.42,2.53-10.82,10.11-6.94,17.76a2.67,2.67,0,0,0,.4.59c.92,1,1.84,2.43,3.36,1.44,1.34-.88.35-2.17-.12-3.23-2.18-4.85-1.51-8.27,3.08-10.83,7.17-4,14.76-5,22.52-1.37a12.06,12.06,0,0,1,7,9.69,28.17,28.17,0,0,1-4.85,21c-3.23,4.53-7.85,6.77-13.24,7.29a36,36,0,0,1-12.85-1,70.18,70.18,0,0,1-16.46-6.55c-5.55-3.13-10-7.29-11-14a31.9,31.9,0,0,1,.35-11.23,44.3,44.3,0,0,1,5-13.69c4.46-7.47,11.39-11.52,19.42-13.91,10.19-3,20.63-3.12,31.15-2.4,7.91.54,15.72,1.79,23.54,3a2.73,2.73,0,0,0,1.86-.13,29.82,29.82,0,0,0-5.58-3.24,108.5,108.5,0,0,0-39.44-9.28c-10.65-.56-21,1.09-31.45,2.55-10.61,1.49-21.2,3.11-31.58,5.9-11.7,3.16-22.41,8.42-32.63,14.85A241.07,241.07,0,0,0,628.67,165a176.89,176.89,0,0,0-22.14,23.56c-6.1,7.54-13.67,13-23.55,14.51-4.44.69-8.66.23-12.2-2.84-3.83-3.32-4.2-7.72-3.62-12.33.8-6.41,3.1-12.36,5.64-18.27a128.9,128.9,0,0,1,17.54-28.8c6.91-7.05,14.14-13.72,22.62-18.9a121.45,121.45,0,0,1,46.67-15.9,202,202,0,0,1,29.38-2,18.1,18.1,0,0,0,4.76-.45c.45-.11,1-.14,1.09-.73s-.43-.83-.84-1.06a18.14,18.14,0,0,0-5.21-1.77,83.46,83.46,0,0,0-26.48-.79c-17.67,2.07-34,8.22-49.33,17a8.47,8.47,0,0,0-.79.54c-10.3,5.41-19.6,12.32-28.68,19.53-7.07,5.49-13.79,11.38-20.52,17.27-9.67,8.45-18.83,17.53-29.64,24.59-3.35,2.19-6.85,4.13-11,4.46a9,9,0,0,1-8.51-4c-5.14-7.36-6.59-15.28-3-23.8A1.5,1.5,0,0,1,511.47,154.19Z" transform="translate(-26.06 -25.1)"/><path class="cls-8" d="M69.27,407.21c.37.54.82.31,1.26.12A66.32,66.32,0,0,1,88.65,403a105.27,105.27,0,0,1,19.85-.33,126.38,126.38,0,0,1,15.4,2.1,63.67,63.67,0,0,1,18,6.29,23.56,23.56,0,0,1,8.48,7.26,11.91,11.91,0,0,1,1.3,11.22c-2.63,7.39-8,11.56-15.7,12.7-9,1.33-17.45-.66-25.42-4.88a14.43,14.43,0,0,1-3.92-3.13,3.13,3.13,0,0,1-.48-3.77c.93-1.93,3-3.33,4.69-3.2,1.31.1,1.75.56,1.25,1.83s.13,1.76,1.17,2a16.74,16.74,0,0,0,9.23-.17c2.45-.75,2.81-2.22,1-4a13.82,13.82,0,0,0-13.13-4.07,18.39,18.39,0,0,0-10,5.32,7.57,7.57,0,0,0-.8.9c-2.27,3.25-2.52,5.42.89,8.33a41.84,41.84,0,0,0,19,9.11c8.21,1.71,16.52,1.61,24.83,1.46a139.65,139.65,0,0,0,18.84-1.51A34.16,34.16,0,0,0,181,437.8c3.83-3.45,5.56-8.17,6.8-13a51.26,51.26,0,0,0,.52-23.5,17.46,17.46,0,0,0-1.05-3.43c-2.34-5.31-2.23-10.74-.79-16.2,1.71-6.52,4.44-12.49,9.66-17.05a35.77,35.77,0,0,1,10.2-6.19,69.35,69.35,0,0,1,16.69-4.12,94.35,94.35,0,0,1,11-.68,97.51,97.51,0,0,1,12.42.65,173.6,173.6,0,0,1,20,3.47,31.61,31.61,0,0,1,8.5,3.18c4.7,2.63,6.75,6.49,6,11.76a23.16,23.16,0,0,1-3.93,9.95c-2.95,4.25-7.19,6.53-12.06,7.65a41.89,41.89,0,0,1-13.32.77c-4.86-.45-9.65-1.22-14.44-2.06a11.56,11.56,0,0,1-6.37-3.56c-2.57-2.64-1.41-8.61,1.88-10.19a2.59,2.59,0,0,1,3.2.88c.94,1.1,1,1.65.08,2.88a1.78,1.78,0,0,0,0,2.39,5.88,5.88,0,0,0,1.7,1.67,15,15,0,0,0,9.08,2.54c3.65-.23,5.13-2.31,4.09-5.83-1.57-5.29-6.22-10.49-13.45-10.14a24.53,24.53,0,0,0-7.47,1.52,22.61,22.61,0,0,0-9.69,6.83c-3.21,3.85-3.4,7.43-.68,11.65a30.27,30.27,0,0,0,12.19,10.88,36.78,36.78,0,0,0,17.65,3.66,49.31,49.31,0,0,0,18-3.77c5.9-2.48,11.6-5.35,16.51-9.6a49.92,49.92,0,0,0,10.65-13.46c1.58-2.78,3.09-5.6,4.68-8.37a29.3,29.3,0,0,1,15.63-13.5,102.06,102.06,0,0,1,26.25-6.27,65.85,65.85,0,0,1,31.65,4.94c3.46,1.45,7.06,2.6,10,5,3.19,2.56,6.25,5.21,8.34,8.84a14.94,14.94,0,0,1,1,13.8c-3.81,9.21-11,14-20.65,15.37-7.82,1.12-15-1-22.07-4-1.39-.61-2.68-1.46-4.09-2-5.12-2-6.42-7.66-5.22-12,.84-3,3.64-5.48,6.27-5.5,1.33,0,1.71.42,1.09,1.56-1.65,3.06-.61,5.54,1.47,7.84a10,10,0,0,0,14.05.38c2.15-2.16,2.48-4.91,1.81-7.81-1.6-6.85-6.51-9.95-12.66-10.57-7.34-.74-14.08,1.3-20.31,5.16a21.49,21.49,0,0,0-4.67,4.1,9.3,9.3,0,0,0-2.34,7.55A20.09,20.09,0,0,0,329.86,393a28.67,28.67,0,0,0,13.38,8.5c6.84,2.13,13.79,2.32,20.86,1.57,6.86-.73,13.48-2.55,20.16-4.11a228.31,228.31,0,0,1,24.2-4.59c10.56-1.31,20.88-.45,30.79,3.75a28.44,28.44,0,0,1,6.42,3.7,13.94,13.94,0,0,1,5.72,13,23.14,23.14,0,0,1-4.27,11.79,20,20,0,0,1-13.23,7.94,52.47,52.47,0,0,1-22.09-1.08c-2.48-.61-4.92-1.35-7.35-2.14-5.09-1.64-7.32-7.71-5.64-12.36a7.56,7.56,0,0,1,2.3-3A11.82,11.82,0,0,1,409,413c.39,0,.82,0,1,.44a.9.9,0,0,1-.31,1.06,8.73,8.73,0,0,1-.68.68c-2,1.67-1.48,3.36.29,4.82a13.24,13.24,0,0,0,6,2.78,18,18,0,0,0,8.3-.14,6,6,0,0,0,2.51-1.35,3.12,3.12,0,0,0,1-3.65,11.91,11.91,0,0,0-3.14-4.76,22.87,22.87,0,0,0-10.64-6.2,14,14,0,0,0-7.11,0,31.8,31.8,0,0,0-11.61,5.51,20.69,20.69,0,0,0-8,15.72c-.56,9.21,2.45,17.26,8.26,24.37a83.28,83.28,0,0,0,15.77,14.29c5.41,4,11,7.74,16.33,11.78,2.59,1.94,5.23,4,6.68,7.05-1,0-2.08,0-3.12,0h-370c-1.12,0-2.24-.06-3.36-.09a140.4,140.4,0,0,1-14.07-23A54.83,54.83,0,0,1,37.84,446c-.82-6.17.12-12,4.5-17,7.22-8.24,15.35-15.28,25.08-20.39A5.57,5.57,0,0,0,69.27,407.21Z" transform="translate(-26.06 -25.1)"/><path class="cls-6" d="M867.11,283.33c1.7.25,3.3-.46,5-.47a51.53,51.53,0,0,1,16,2.57,111.34,111.34,0,0,1,23.77,11.22,232.57,232.57,0,0,1,22.82,15.78q7.47,5.77,14.63,11.95,9,7.75,17.7,15.75c3,2.7,5.7,5.6,8.68,8.26,7.45,6.67,14.4,13.86,21.31,21.06,4.64,4.84,9.54,9.44,13.86,14.58a5.32,5.32,0,0,0,2.26,1.92,17.14,17.14,0,0,0,1.32-5.22c1-5.47,2.09-11,2.8-16.46.54-4.26.83-8.56,1.21-12.84.46-5.28.31-10.53.33-15.8a104.15,104.15,0,0,0-1.31-14.73,99.26,99.26,0,0,0-3.68-16.29A88.85,88.85,0,0,0,999,277.15c-2.39-3.1-4.8-6.17-7.37-9.11a19.47,19.47,0,0,0-5.61-4.42c-1.89-1-3.49-.57-4.91,1a7.2,7.2,0,0,0-1.5,3.23,31.91,31.91,0,0,0-1.11,7.78c0,4.79-.2,9.59.52,14.35.67,4.49,1.38,9,3.4,13.13.39.8.62,2.1,1.81,1.9s1.24-1.49,1.32-2.37a47.23,47.23,0,0,0,.63-7.13,47.11,47.11,0,0,1,.53-7.87,6.24,6.24,0,0,1,1.19-2.84c.86-1.24,2.63-1.48,4.34-.6a11.4,11.4,0,0,1,3.57,2.79,49,49,0,0,1,8.22,14.5c3.52,9.21,4.28,18.79,3.7,28.5a59.46,59.46,0,0,1-2.74,13.79,14.58,14.58,0,0,1-1.6,3.47c-1.92,3.14-4.84,3.68-7.7,1.38a21.19,21.19,0,0,1-3.68-3.77A83.64,83.64,0,0,1,983,329.08a223.39,223.39,0,0,1-9.21-24.91,166.68,166.68,0,0,1-5.35-22.05A106.1,106.1,0,0,1,967,257.34a87,87,0,0,1,4.32-22.46,16,16,0,0,1,2.64-4.81c2.29-2.89,5.54-4.69,10.43-3.08a24.71,24.71,0,0,1,7.46,4.22c5.27,4.13,9.46,9.26,13.39,14.59a135.77,135.77,0,0,1,13,21.52A182.57,182.57,0,0,1,1029,295.44c2.08,7,4,14.09,5.74,21.23q3.83,16.14,6.69,32.49c1.09,6.19,2.09,12.39,3.12,18.59.86,5.17,1.31,10.41,2.13,15.6.27,1.7.09,3.5.82,5.13,0,.8.07,1.6.07,2.4q0,42.57,0,85.14a9,9,0,0,1-4.24,8.09,7.67,7.67,0,0,1-4.28,1.32H848.41c-1,0-1.92,0-2.88-.05-2.39-.44-4.78-.87-6.8-2.37-2.79-1.59-5.86-2.53-8.79-3.81a267.43,267.43,0,0,1-44.77-24.42,104.68,104.68,0,0,1-16.41-13.59,33.86,33.86,0,0,1-6.83-9.48c-2.35-2.36-2.82-7.19-1-10.74a12.06,12.06,0,0,1,4-4.67A55.65,55.65,0,0,1,789.6,407a61.93,61.93,0,0,1,14.39-.84,4.89,4.89,0,0,0,2.57.24,3.21,3.21,0,0,1,.76-.06,192.74,192.74,0,0,1,37.82,6.05c18.48,4.66,36.66,10.23,53.57,19.28a57,57,0,0,1,8.44,5.49,19.56,19.56,0,0,1,3.24,3.19c4.36,5.46,3.42,10.42-2.64,13.94a47.16,47.16,0,0,1-29.53,6.05,88.76,88.76,0,0,1-35.31-11.46,41.14,41.14,0,0,1-10.23-8.24c-3-3.4-2.24-6.84,2-8.46a38.17,38.17,0,0,1,6.05-1.49,55.84,55.84,0,0,0,6.77-1.57c.8-.28,1.88-.39,1.9-1.52s-1-1.34-1.75-1.76a10,10,0,0,0-2-.83c-8.34-2.75-16.91-3.18-25.59-2.48a51.07,51.07,0,0,0-10.12,1.84c-6.25,2.44-7,5.33-2.82,10.5a33,33,0,0,0,4.82,4.24,267.18,267.18,0,0,0,34.22,20.26,129.45,129.45,0,0,0,45.4,13.82c4,.42,8.11.57,12.18.79,7.25,4.91,15.31,4.58,23.46,3.61A18.43,18.43,0,0,0,932,476c2.87-1.2,4.64-3,4-6.41,1.56-2.11,4.11-2,6.26-2.8,2.2.14,4.08,1.32,6.15,1.91a72.61,72.61,0,0,0,18.24,2.58c8.42.21,16.79-.08,25-2.32a28.92,28.92,0,0,0,6.89-2.75c4.16-2.39,4.2-5.52,0-7.91-3.81-2.16-8-3.1-12.3-3.89-3.06-.57-6.17-.84-9.28-1.15a13.07,13.07,0,0,0-3.79-.39c-.64,0-1.4,0-1.73-.62s.26-1.37.74-1.85a25.43,25.43,0,0,0,5.82-8.72c5.42-13.64,4.68-27.25-.59-40.69-6.56-16.76-16.07-31.78-27.46-45.65a162.39,162.39,0,0,0-42-36.43,40.33,40.33,0,0,0-14.5-5.47c-8.63-1.34-16.63,7.74-14.07,16.09,1.52,4.95,4.5,9.18,7.2,13.51,6,9.65,12.65,18.86,21.07,26.64,3.37,3.13,6.93,5.89,11.5,7.11,3.35.89,5.94-.39,8.23-2.65,1.09-1.08.92-2.1-.25-3a12.15,12.15,0,0,0-3.89-1.82,43.69,43.69,0,0,1-22-16.25c-4.76-6.63-6-14.07-4.3-21.93,1.21-5.69,5.33-7.86,10.83-6,5.84,1.93,10.54,5.69,14.94,9.78A156.16,156.16,0,0,1,954.14,376a60.35,60.35,0,0,1,7,19.57c1.13,7.47-1.43,12.78-8.19,16.21-7.58,3.83-15.73,4.75-24,3.93-18.7-1.86-34.35-10.55-48.61-22.15a115.64,115.64,0,0,1-32.51-41,66.67,66.67,0,0,1-6.71-32.31c.06-1.13.44-2.2.45-3.32a48.22,48.22,0,0,1,12.12-26.76,22.83,22.83,0,0,1,11.16-6.63A3.46,3.46,0,0,1,867.11,283.33Z" transform="translate(-26.06 -25.1)"/><path class="cls-9" d="M110.38,138a116.59,116.59,0,0,1-7.5,29.63A63.68,63.68,0,0,1,94,183.72a24.52,24.52,0,0,1-5,4.85c-4.54,3.26-9.61,3-13.82-.76a55.91,55.91,0,0,1-5.78-6.7c-3-3-4.07-6.9-4.47-10.83-1.1-11,2.3-20.48,10.47-28.12A16,16,0,0,1,80.25,139c3.37-1.4,6.11-.51,8,2.66a45.29,45.29,0,0,1,2.85,5.81,18.15,18.15,0,0,0,1.21,2.61c.51.84,1.09,1.69,2.2,1.6s1.58-1,1.94-1.92a21.19,21.19,0,0,0,1.12-9.67,29.53,29.53,0,0,0-3.74-12.78c-2.84-5-6.76-6-11.68-3a35.41,35.41,0,0,0-8.88,7.95c-5.72,6.9-11.54,13.68-15.39,21.9a44.82,44.82,0,0,0-2.92,31.74,53.68,53.68,0,0,0,2.45,7.52,4.32,4.32,0,0,1,.45,2.32,14.79,14.79,0,0,0,1.87,4.38,95.56,95.56,0,0,0,7.41,12.32,2.46,2.46,0,0,0,2.62,1.2,55.71,55.71,0,0,1,8.37-.35,3.19,3.19,0,0,0,3.06-1.8,260.72,260.72,0,0,1,18-26.6c8.07-10.39,16.89-20.05,27.32-28.16a71.91,71.91,0,0,1,29.86-13.53,66.89,66.89,0,0,1,16-1.46,33.35,33.35,0,0,1,10.33,1.86,15.45,15.45,0,0,1,10.71,14.66c.25,6.45-.5,12.58-3.48,18.35a40,40,0,0,1-7.57,10.16,74.8,74.8,0,0,1-24.57,16.4,25.81,25.81,0,0,1-11,2.1c-4.4-.22-7.47-2.65-8.24-7-2.32-12.91,4.29-24.09,17.52-27a15.22,15.22,0,0,1,6.44-.15c4.57,1,5.31,3.14,4.72,6.6-.25,1.41-.71,2.78-1.06,4.18-.22.85-.49,1.69-.63,2.55a2.4,2.4,0,0,0,.77,2.61c.87.59,1.72.16,2.49-.26a13.94,13.94,0,0,0,4.47-3.93A26,26,0,0,0,178,172.51a12.2,12.2,0,0,0,.27-2.62,6.56,6.56,0,0,0-5.4-6.91,15.86,15.86,0,0,0-5-.56,82.66,82.66,0,0,0-20.68,3.76c-10.48,3.58-17.25,10.94-21.17,21.11a64.41,64.41,0,0,0-4,18.2c-.16,1.91-.26,3.82-.43,5.73-.1,1.14.34,1.55,1.49,1.55,3.6,0,7.19.21,10.78.36a272.65,272.65,0,0,1,41.41,4.53c9.75,1.92,19.3,4.52,28,9.5a34.57,34.57,0,0,1,8.83,6.94c5.46,6.14,6.6,13.25,4.75,21.06-3.51,14.8-12.91,24.25-26.83,29.58a64.31,64.31,0,0,1-19.15,4,70.66,70.66,0,0,1-35-6.3c-8.49-4-15.33-9.79-19.88-18.09-1.87-3.41-3.11-7-2.73-11a9.15,9.15,0,0,1,2.41-5.37,22.62,22.62,0,0,1,6.66-5c6.09-3.18,12.66-4.89,19.35-6.15A91.56,91.56,0,0,1,163,235.32a34.84,34.84,0,0,1,10.8,1.94c5.77,2.16,7,6,3.37,11A17.5,17.5,0,0,1,162.54,256a27.65,27.65,0,0,1-14.45-3.65,13.63,13.63,0,0,0-2.59-1.23c-1.59-.51-2.58.16-2.53,1.82.09,2.85,1,5.34,3.69,6.84a18.68,18.68,0,0,0,6.38,1.94,44.2,44.2,0,0,0,11.94-.15,99.07,99.07,0,0,0,18.28-3.77c1-.3,2-.66,2.94-1a8.77,8.77,0,0,0,5.62-7.44c.76-5.23-1-9.21-5.59-12-4.09-2.51-8.61-3.79-13.21-4.87a95.88,95.88,0,0,0-27.38-2.36c-13.6.77-26.73,3.63-39.08,9.57a39.68,39.68,0,0,0-16.51,14.91,27.24,27.24,0,0,0-3.15,23.87c.71,2.29,1.6,4.52,2.37,6.79.51,1.51,1,3,1.41,4.58A10.39,10.39,0,0,1,88,300a30.15,30.15,0,0,1-9.49,6.4C70.66,310.1,62.3,312.2,53.86,314q-10.2,2.18-20.54,3.53a8,8,0,0,1-.16-2.62q0-80,0-160.08a14.91,14.91,0,0,1,.82-4.93,110.89,110.89,0,0,1,26.72-42.73,52.75,52.75,0,0,1,14-10.39,25.26,25.26,0,0,1,8.89-2.68A16.49,16.49,0,0,1,97.31,99c6.55,6.43,11.14,14,12.63,23.17a61.13,61.13,0,0,1,.53,14.11C110.43,136.84,110.41,137.4,110.38,138Z" transform="translate(-26.06 -25.1)"/><path class="cls-9" d="M954.94,160c-6.47-5.31-12.87-10.72-19.65-15.63-5.29-3.83-10.66-7.55-16-11.32a1.4,1.4,0,0,1,.46-1.05c1.27-1.41.56-2.31-.83-2.92a22.85,22.85,0,0,0-6.68-1.63c-1.48-.16-3-.11-4.29-1.12a128.7,128.7,0,0,0-13.86-7.87c-.64-.57-.33-1.35-.45-2a7.16,7.16,0,0,0-3.91-5.14,24.37,24.37,0,0,0-11.45-3c-1.48-.05-3,.35-4.44-.51-.41-1.1.39-1.8.91-2.56a50.22,50.22,0,0,0,9.08-25.43,23.81,23.81,0,0,0-5.27-17c-4.19-5.14-9.47-4.78-12.79,1A35.41,35.41,0,0,0,861,81.15a9.59,9.59,0,0,0,1,4.41c1.2,2.42,3.09,2.81,4.94.87a16,16,0,0,0,4.29-10.65,24.81,24.81,0,0,1,.13-3.11,1.46,1.46,0,0,1,1.16-1.36,1.65,1.65,0,0,1,1.7.64,7.43,7.43,0,0,1,1.55,4c.54,5.92,0,11.82-2.76,17.06a19.22,19.22,0,0,1-12.68,10.09c-3.82-1.28-7.64-2.58-11.46-3.85a4.08,4.08,0,0,1-1.34-.91c-7-14.84-4.78-37.42,7.71-51.83A31.23,31.23,0,0,1,873.1,36a13.89,13.89,0,0,1,9.12,1.12c8.3,4.26,14.86,10.24,17.8,19.42a53.59,53.59,0,0,1,2.08,12.26c.4,5.18.67,10.36,1,15.55a91.54,91.54,0,0,0,2.54,16.79A49,49,0,0,0,913.49,118a19.94,19.94,0,0,0,6.08,5.7,11.55,11.55,0,0,0,12.08.2A16.21,16.21,0,0,0,936,120.5c5.48-6,9.48-12.9,11-21a27.8,27.8,0,0,0-3-18.34,11,11,0,0,0-2.84-3.52,4.54,4.54,0,0,0-6.14,0,11.6,11.6,0,0,0-2.9,3.48,40.11,40.11,0,0,0-4.31,11.13,10.88,10.88,0,0,0-.17,4.06c.34,2.18,1.93,3.11,4,2.4a8.51,8.51,0,0,0,5.6-8.75A6,6,0,0,1,938.1,86c.35-.59.69-1.41,1.56-1.24.7.14.81.91.94,1.53a24.72,24.72,0,0,1,.11,8.58,14.81,14.81,0,0,1-3.17,7.13,7.12,7.12,0,0,1-4.33,2.78A61,61,0,0,1,927.1,106c-6.54.74-11.3-1.89-13.56-8.09A27.69,27.69,0,0,1,911.89,90c-.39-6.56-.33-13.11,1.32-19.53a34.28,34.28,0,0,1,1.26-3.87A16.18,16.18,0,0,1,924,56.76c5.18-2,10.49-3.44,16.1-3.24,9.72.33,17.15,4.52,21.77,13.26a37,37,0,0,1,4,13.72,105.9,105.9,0,0,1-2.34,36.18c-1.12,4.57-2.89,9-3.94,13.56a190.36,190.36,0,0,0-4.27,26.95C955.28,158.14,955.08,159.08,954.94,160Z" transform="translate(-26.06 -25.1)"/><path class="cls-9" d="M1004.44,207.88c-.58-1.09-1.85-1.65-2.32-2.89.86-.65,1.93-.14,2.69-.74,3.33-2.12,9.93-2.45,12.58.2s5.87,3.45,9.25,4.21c.66.15,1.49.61,2-.14s-.25-1.17-.57-1.7c-1.65-2.76-1.62-3.11.63-5.51.38-.42.86-.82.48-1.44-.48-.78-1.25-.67-1.92-.36a27.4,27.4,0,0,1-5.88,1.94,17.9,17.9,0,0,1-6.65-.15c-5.78-.94-11.25-3-16.78-4.8a1.32,1.32,0,0,1-.86-.77c.06-1,.8-1.54,1.42-2.14a52.16,52.16,0,0,0,4.08-4.71c5.54-6.66,3.93-15,.5-20.37-2.06-3.23-4.52-3.37-7.31-.71a14.09,14.09,0,0,0-3.17,4.76,2.89,2.89,0,0,0,.49,3.54,3.86,3.86,0,0,0,3.74,1.1c1.47-.38,1.66-1.55,1.72-2.82.05-1.09.35-2.23,1.56-2.4,1.42-.2,1.85,1.05,2.17,2.12,1.1,3.73.85,7.29-1.55,10.49a21.9,21.9,0,0,1-9,7.35,2.5,2.5,0,0,1-2.28.28c-4.75-4.37-9.51-8.72-13.91-13.43,0-3.68-.36-7.35.05-11,1.44-13,7.45-22.87,19.71-28.15a28.69,28.69,0,0,1,25.25.62,24,24,0,0,1,10.27,10.09,78.87,78.87,0,0,1,7.11,19.27,137,137,0,0,1,3,14.05c1,6.92.23,13.73-1.15,20.48-2.32,11.39-6.23,22.28-10.56,33a4.72,4.72,0,0,1-.37.61c-2.44-3.33-4.85-6.7-7.33-10-3.4-4.52-7-8.86-10.74-13.13-.36-.41-.65-.88-1-1.33,1.31-1.2,3.07-.49,4.53-1.06,1.2-.47,3.18-.37,3.13-2s-2-1.8-3.39-2a42.65,42.65,0,0,0-7.83-.08C1005.59,208.27,1004.92,208.49,1004.44,207.88Z" transform="translate(-26.06 -25.1)"/><path class="cls-6" d="M645.56,81.24A59.8,59.8,0,0,1,632,79.8a16.22,16.22,0,0,1-4.89-1.91c-3-1.83-3.39-4.37-1-6.94a16.82,16.82,0,0,1,4.66-3.31,62.63,62.63,0,0,1,17-5.57,98.32,98.32,0,0,1,23.09-1.91,47.14,47.14,0,0,1,10.63,1.56,12.77,12.77,0,0,1,4.94,2.36,3.6,3.6,0,0,1,.61,5.48,15.23,15.23,0,0,1-5.27,4.07,55.78,55.78,0,0,1-12.34,4.5A106.55,106.55,0,0,1,645.56,81.24Z" transform="translate(-26.06 -25.1)"/><path class="cls-6" d="M675.63,56.29c-3.47-.16-6.91-.74-10-2.76-4.14-2.74-4.82-7-1.78-10.93a11.66,11.66,0,0,1,3.64-3.07,23.34,23.34,0,0,1,19.4-2,11.2,11.2,0,0,1,4.31,2.53,6.83,6.83,0,0,1,1.14,8.75,12.9,12.9,0,0,1-4.94,4.45A24.93,24.93,0,0,1,675.63,56.29Z" transform="translate(-26.06 -25.1)"/><path class="cls-10" d="M89.36,78.77a36.67,36.67,0,0,1,14.85,3.76,116.87,116.87,0,0,0,12.62,5.79,22.57,22.57,0,0,0,7.94,1.55,14.58,14.58,0,0,0,5.35-1.15c1-.41,2-.6,2.85.36a1.62,1.62,0,0,1-.52,2.75c-3.14,1.75-3.15,1.79-1.5,5,.41.82,1.37,1.73.59,2.59s-1.81.17-2.69-.17c-3.67-1.44-7.1-3.27-9.7-6.38a7.06,7.06,0,0,0-6.71-2.35c-8.83,1-16.74-1.5-24-6.3a13.73,13.73,0,0,1-3.1-2.63c-1.27-1.52-1-2.39,1.06-2.69A28.64,28.64,0,0,1,89.36,78.77Z" transform="translate(-26.06 -25.1)"/><path class="cls-11" d="M838.73,483a31.52,31.52,0,0,1,6.8,2.37h-5.17Z" transform="translate(-26.06 -25.1)"/><path class="cls-2" d="M867.11,283.33c-1.43.48-2.89.9-4.29,1.46a24.16,24.16,0,0,0-10.44,7.74,50,50,0,0,0-10.31,24.36c-.23.69-.39,1.61-1.34.61A9.77,9.77,0,0,1,839.3,315a121.48,121.48,0,0,0-17.48-27.13c-6.55-7.48-14-13.87-23.78-16.73-12.12-3.54-24,.66-30.13,12.65-3.07,6-4.62,12.23-2.66,18.72,2.28,7.58,7.58,12.42,15.3,14.45a9.65,9.65,0,0,0,4,.14,28.28,28.28,0,0,1,17,2.62C812,324.65,820.1,332.2,827.21,341a102.28,102.28,0,0,1,13.42,21.51c.44,1,1.57,2,.24,3.15-6.26-.32-12.43-1.45-18.66-2.07-1.85-.67-3.18-2.09-4.62-3.34-10.38-9-21.73-16.23-35.13-19.9-7.28-2-14.73-2.79-22.2-3.5a169.78,169.78,0,0,0-17.18-1,61.43,61.43,0,0,0-25.23,5.86c-4.8,2.19-9.64,4.28-13.9,7.47a1.94,1.94,0,0,1-2,.49c-4.35-.46-8.7-1-13.05-1.35-1.91-.18-3.81-.35-5.71-.54-5.86-.58-11.75-1-17.61-1.56-5.23-.53-10.46-1-15.69-1.45-5.47-.47-10.94-1-16.42-1.46s-11.1-1-16.65-1.42c-6-.49-11.9-1-17.86-1.45-6.11-.44-12.21-1.06-18.34-1.42-5.16-.31-10.3-1-15.46-1.27-3.19-.14-6.37-.4-9.55-.65-3.57-.27-7.17-.19-10.71-.8a5.16,5.16,0,0,0-1-.06c-3.92.19-7.8-.43-11.71-.61-5.57-.27-11.13-.63-16.7-1s-11.14-.63-16.71-.94c-6.69-.38-13.38-.65-20.06-1-3.59-.2-7.2-.07-10.75-.45-4.07-.44-8.16-.08-12.19-.49-4.56-.47-9.12,0-13.64-.47-5.43-.52-10.86-.08-16.27-.47-10.62-.75-21.25-.24-31.87-.44a3.92,3.92,0,0,1-2.11-.26c1-1.33,2.5-.7,3.78-.83.87-.09,1.75,0,3.19,0-10.07-5.65-19.87-10.53-31-12.06-7.1-1-14.2-.59-21.28,0a233.91,233.91,0,0,0-23.28,2.94,78.09,78.09,0,0,0-23.87,9.07c-1.61.9-3.31,1.59-4.91,2.49-4.59.21-9.2.2-13.76.7-3.39.38-6.79.32-10.18.72-2.89.33-5.83.47-8.76.61-.35-.9.24-1.56.65-2.19,7.81-12.17,17.05-23,29.61-30.52,5.8-3.48,11.92-6.21,19-5.81a15.33,15.33,0,0,1,2.15.15c7.19,1.49,12.59-1.78,17.29-6.63a22.75,22.75,0,0,0,6.4-15.14,27.26,27.26,0,0,0-2.11-11.46c-2.93-7.29-7-13.62-14.4-17.22-8.3-4-16.48-3.08-24.51.54-9.25,4.16-16.42,10.95-22.68,18.78-9.21,11.53-15.68,24.65-21.89,37.91-4.84,10.35-9,21-14.09,31.24a7.4,7.4,0,0,1-1.84,2.77c-4.08.49-8.16,1-12.23,1.48-2.43.3-4.83.87-7.28.95A66.43,66.43,0,0,1,213.66,328a100.92,100.92,0,0,1-.47-15.06c.29-4.79.57-9.57,1.13-14.33,1.55-13.13,3.84-26.08,9.75-38.11a89.23,89.23,0,0,1,33.72-36.83,119.7,119.7,0,0,1,43.91-16.52,113.89,113.89,0,0,1,27.49-.83c15.07,1.16,29.58,4.93,44,9,6.23,1.75,12.4,3.67,18.68,5.23a131.6,131.6,0,0,0,24.82,3.83A110.22,110.22,0,0,0,460.27,218a41.29,41.29,0,0,0,14.06-8c5.17-4.68,6.42-10.45,5.15-17a40.77,40.77,0,0,0-5.3-13,79,79,0,0,0-18.94-22.09C447.81,152,439.37,150,430,151.18c-7.34,1-14.35,3.1-21.39,5.21-14.15,4.24-28.24,8.68-42.66,11.93a190.37,190.37,0,0,1-23.64,3.77c-4.86.46-9.74.58-14.59.62-9.18.08-18.37-.32-27.35-2.64a36.37,36.37,0,0,1-9.77-3.87c-4-2.4-7-5.57-7.93-10.32a18.49,18.49,0,0,1,1.06-9.43,40.22,40.22,0,0,1,4.09-8.39,123.13,123.13,0,0,1,13.81-18.38c6.57-7.1,14.4-12.12,24.12-13.77a56.65,56.65,0,0,1,13.39-.54,123.6,123.6,0,0,1,13.58,1.33,25.88,25.88,0,0,1,9.68,3.33,10.18,10.18,0,0,1,4.95,10,22.13,22.13,0,0,1-2.58,8.91,6.25,6.25,0,0,1-2.79,2.87,2.24,2.24,0,0,1-2.48-.23,2.19,2.19,0,0,1-.85-2.32,11.47,11.47,0,0,1,1.23-3.11c1.95-4.08,1.14-7.36-2.46-10.13a21.41,21.41,0,0,0-9-3.75,24.91,24.91,0,0,0-11.86.19c-6.77,1.89-10.86,6.81-11.34,13.81a35.55,35.55,0,0,0,3.14,17c3.68,8.26,10.26,12.15,19.15,12.33a39.07,39.07,0,0,0,12-1.86c7.23-2.17,14.17-5,20.27-9.56a18.76,18.76,0,0,0,7.85-14.7,47.62,47.62,0,0,0-5.05-23.89c-4-8.12-10.81-13.09-19.15-16.1A65.19,65.19,0,0,0,346.17,86a99.59,99.59,0,0,0-12.69-.3,197.53,197.53,0,0,0-20.74,2c-4.33.66-8.67,1.36-13,2-.44.07-.94.27-1.41-.34.33-1,1.29-1.46,2.13-2a79.92,79.92,0,0,1,20.31-9,115.51,115.51,0,0,1,40-4.76,164.32,164.32,0,0,1,16.41,2c7.73,1.18,15.46,2.41,23.16,3.76,14.08,2.47,27.73,6.31,40.29,13.37a249,249,0,0,1,34.12,23.1,199.44,199.44,0,0,1,16.42,14.73,157.41,157.41,0,0,1,15.35,17.77,55.37,55.37,0,0,0,5,5.86c-.26,2.38-1.44,4.53-1.7,6.95a19.69,19.69,0,0,0,.2,7.34,29.34,29.34,0,0,0,3.73,9c2.67,4,6.25,5.58,11.42,4.08,4.28-1.24,8-3.68,11.5-6.28,5.08-3.73,9.85-7.85,14.56-12q11.63-10.32,23.39-20.49c2.47-2.15,5.06-4.14,7.59-6.21a2.23,2.23,0,0,1,1.28-.59,17.87,17.87,0,0,1,7.2,4.81c.36.57.14,1-.28,1.47a101.47,101.47,0,0,0-14.73,22.9c-2.62,5.47-5.19,11-6.66,16.91a36.18,36.18,0,0,0-1.38,9.19c.09,7.44,5.07,11.31,11.5,11.41,7.35.12,13.66-2.72,19.41-7.09,4.31-3.27,7.65-7.45,11-11.61a143.44,143.44,0,0,1,14.54-15.55,215.89,215.89,0,0,1,17.35-14.33,250.57,250.57,0,0,1,22.26-14.52,109,109,0,0,1,23-10.09A158.27,158.27,0,0,1,706.45,125c7.61-1.32,15.26-2.39,22.91-3.45,5-.69,9.95-1.25,15-1.46a105,105,0,0,1,46.4,8.41,57.46,57.46,0,0,1,7,3.6,4.72,4.72,0,0,1,2.14,2.15,36.17,36.17,0,0,1-7.13-.74c-4.57-.66-9.14-1.32-13.73-1.88a123.91,123.91,0,0,0-20.55-.83c-8,.36-15.86,1.62-23.2,5.14a28.89,28.89,0,0,0-15.53,17.64,46.52,46.52,0,0,0-2.51,14.78,16.87,16.87,0,0,0,7.54,14.49,57.93,57.93,0,0,0,23.13,9.36,30.45,30.45,0,0,0,11.18.08c7-1.29,11.27-5.66,13.79-12a28.62,28.62,0,0,0,2-14.1c-.81-6.54-4.16-10.17-10.82-11.83-5.46-1.36-10.78-.4-16,1.6a11,11,0,0,0-4.14,2.8c-1.87,2.05-2.7,4.16-1.32,7.24.4.88.87,1.71,1.25,2.59s.56,2-.44,2.82a2.31,2.31,0,0,1-3.08-.13,4.61,4.61,0,0,1-1.21-1.16,16.36,16.36,0,0,1-3-11.08c.46-3.72,2.79-6.13,6.19-7.61a31.15,31.15,0,0,1,9.49-2.34c5.47-.51,11-1.23,16.47-1,10.27.43,19.27,3.92,26.75,11.17A96.3,96.3,0,0,1,805.25,171c1,1.35,2,2.25,3.7,2,.19,0,.41.2.62.31-1,1.08-2.38.74-3.61.73a57.88,57.88,0,0,0-20.33,3.83c-1.28.47-3.33.76-3.19,2.33.12,1.34,2.15,1.33,3.43,1.59a61.59,61.59,0,0,0,23.28-.16c1.07-.2,2.17-.66,3.26,0a4.91,4.91,0,0,0,.67,2.27c1.21,3.16,2,6.38,1.12,9.78-1.1,4.19-4.06,6.79-7.66,8.77a40.91,40.91,0,0,1-12.72,4c-9.33,1.65-18.76,1.74-28.17,1.34A155.44,155.44,0,0,1,749,206.21c-13.44-2-26.46-5.76-39.52-9.38-7.38-2.05-14.66-4.41-22.1-6.27a54.38,54.38,0,0,0-17.54-1.76,28,28,0,0,0-14.54,5.71,67.53,67.53,0,0,0-20.93,25.78A24.43,24.43,0,0,0,632,230a12.49,12.49,0,0,0,3.09,8.83A29.32,29.32,0,0,0,644.9,246c7.36,3.47,15.16,5.31,23.13,6.7a103.19,103.19,0,0,0,23.86,1.24,125.35,125.35,0,0,0,26.32-4.59c11.6-3.24,23.17-6.58,35-8.91q7.74-1.51,15.59-2.31a150.73,150.73,0,0,1,20.6-.31A79.66,79.66,0,0,1,807,240.73a120.89,120.89,0,0,1,23.73,8.89,90.41,90.41,0,0,1,26.17,19.53A76.11,76.11,0,0,1,867.11,283.33Z" transform="translate(-26.06 -25.1)"/><path class="cls-2" d="M557.91,113.49c-.39,1-1.46,1.16-2.24,1.63-4.35,2.59-8.83,5-13,7.84a16.1,16.1,0,0,1-1.9,1,124.43,124.43,0,0,0-11.66-20.08,105,105,0,0,0-40.87-34,132.35,132.35,0,0,0-35.16-10.72,202.13,202.13,0,0,0-28.85-2.56c-3.43-.08-6.87-.17-10.3-.36a11,11,0,0,1-2.35-.38c-1.3-.36-1.47-1-.62-2.07a7.37,7.37,0,0,1,3.41-2.15,43,43,0,0,1,7.9-1.94,68.85,68.85,0,0,1,13.12-.92,113.24,113.24,0,0,1,28.16,3.91,155.91,155.91,0,0,1,39,17A264.48,264.48,0,0,1,539,96.53C545.41,102.05,551.64,107.78,557.91,113.49Z" transform="translate(-26.06 -25.1)"/><path class="cls-2" d="M57.82,195.71a47.22,47.22,0,0,1-4.28-13.13c-2.47-12.57.3-24.1,7-34.81a125.57,125.57,0,0,1,15.65-19.66,25.5,25.5,0,0,1,6-4.7c4.79-2.64,8.75-1.68,11.72,3a29.68,29.68,0,0,1,4.19,13.11,23.86,23.86,0,0,1-.51,8.79,8.36,8.36,0,0,1-1.71,3.65,1.83,1.83,0,0,1-2.93.17,8.29,8.29,0,0,1-2-3c-.87-1.88-1.67-3.8-2.53-5.69a9.91,9.91,0,0,0-1.8-2.81,4.72,4.72,0,0,0-4.78-1.47,11.79,11.79,0,0,0-4.69,2.31C67.58,149,61.56,164.92,68,178.13c.48,1,1,2,1.49,3-3.71,4.3-7.17,8.8-10.58,13.33C58.56,194.89,58.18,195.29,57.82,195.71Z" transform="translate(-26.06 -25.1)"/><path class="cls-12" d="M269,175.75c9.3,0,17,.71,24.48,2.93a28.5,28.5,0,0,1,5.1,2.06,10.1,10.1,0,0,1,2.34,1.65c2.4,2.27,2.3,4.61-.34,6.66a24.35,24.35,0,0,1-9.16,4,83.57,83.57,0,0,1-13.46,2.09A90,90,0,0,1,261.2,195a56.4,56.4,0,0,1-17-3.81,12.31,12.31,0,0,1-4.35-2.9,3.73,3.73,0,0,1,.11-5.54,13.12,13.12,0,0,1,3.8-2.48,42.2,42.2,0,0,1,11.94-3.37A78.55,78.55,0,0,1,269,175.75Z" transform="translate(-26.06 -25.1)"/><path class="cls-2" d="M132.74,354.69c-2,0-2.9-1.16-2.31-3a9.17,9.17,0,0,1,2-3.23,26,26,0,0,1,13-8.18,6.2,6.2,0,0,1,1.41-.23c2.2-.05,3.05,1.2,2.22,3.24a8.73,8.73,0,0,1-1.68,2.6c-3.76,4.18-8.12,7.41-13.76,8.57Z" transform="translate(-26.06 -25.1)"/><path class="cls-2" d="M203.36,82.82a6.54,6.54,0,0,1-3.48-.74,3.17,3.17,0,0,1-1.52-3.68,6.16,6.16,0,0,1,1.74-3.09,13.09,13.09,0,0,1,11-4.14c3.35.36,4.7,3,2.92,5.85C211.61,80.94,207.79,82.5,203.36,82.82Z" transform="translate(-26.06 -25.1)"/><path class="cls-13" d="M114.06,361c-2,.07-2.71-1-2.11-2.75a6.43,6.43,0,0,1,1.41-2.2,17.93,17.93,0,0,1,8.92-5.71,4.14,4.14,0,0,1,2.12-.13,1.51,1.51,0,0,1,1.26,1.95,4.57,4.57,0,0,1-.86,2,18.23,18.23,0,0,1-10.14,6.79A4.88,4.88,0,0,1,114.06,361Z" transform="translate(-26.06 -25.1)"/><path class="cls-14" d="M95.79,371.74c-2.26,0-2.83-.89-2-2.76a10.85,10.85,0,0,1,2.56-3.42,19,19,0,0,1,7.65-4.7c1.06-.31,2.31-.65,3.12.37s.2,2.15-.42,3.08a19.14,19.14,0,0,1-9.54,7.24A5,5,0,0,1,95.79,371.74Z" transform="translate(-26.06 -25.1)"/><path class="cls-2" d="M221.05,72.2a3.15,3.15,0,0,1-3.18-1.61,3.58,3.58,0,0,1,.65-4A8.88,8.88,0,0,1,226.71,63c2.39.26,3.41,2,2.56,4.31C228.27,70,224.64,72.22,221.05,72.2Z" transform="translate(-26.06 -25.1)"/><path class="cls-13" d="M240.86,56.29a5.84,5.84,0,0,1,1.9.28c2.27.85,2.93,2.71,1.66,4.79-1.54,2.51-5.66,4.42-8.53,3.86-1.36-.26-2.66-.75-3.1-2.28a3.57,3.57,0,0,1,1.09-3.49A9.44,9.44,0,0,1,240.86,56.29Z" transform="translate(-26.06 -25.1)"/><path class="cls-13" d="M80,383c-1.21-.05-1.69-.76-1.25-1.79a7.13,7.13,0,0,1,1-1.61,14.8,14.8,0,0,1,6.93-4.87c.69-.23,1.45-.39,2,.27s.14,1.41-.26,2a14.52,14.52,0,0,1-7.64,5.81C80.53,382.88,80.22,383,80,383Z" transform="translate(-26.06 -25.1)"/><path class="cls-13" d="M255.43,51.86c.1,0,.5,0,.89,0a2,2,0,0,1,1.42,3.6A6.7,6.7,0,0,1,251,57.68a2,2,0,0,1-1.18-3.5A6.5,6.5,0,0,1,255.43,51.86Z" transform="translate(-26.06 -25.1)"/><path class="cls-15" d="M262.56,53.3c-.64-.1-1.34-.15-1.63-.8a1.5,1.5,0,0,1,.65-1.86,5,5,0,0,1,3.3-1.06c.66,0,1.31.15,1.58.81s-.16,1.22-.66,1.65A6.18,6.18,0,0,1,262.56,53.3Z" transform="translate(-26.06 -25.1)"/><path class="cls-16" d="M76.57,386.91a4.5,4.5,0,0,1-.45.92,10,10,0,0,1-4.55,3.31c-.38.13-.79.24-1.11-.1a.84.84,0,0,1,0-1.1,9,9,0,0,1,5.28-3.8C76.18,386,76.54,386.35,76.57,386.91Z" transform="translate(-26.06 -25.1)"/><path class="cls-8" d="M702,349.61a81.45,81.45,0,0,1,10.93-6.42c6-2.75,11.9-5.47,18.37-6.79a66.35,66.35,0,0,1,20.71-.87c2.22.25,4.45.35,6.67.53a143.2,143.2,0,0,1,21.75,3,73.44,73.44,0,0,1,19.12,7.5A118,118,0,0,1,816.07,358c2,1.62,3.85,3.36,5.77,5,2.59.94,3.8,3.36,5.48,5.22,7.28,8.06,13.37,16.88,16.82,27.32a42.34,42.34,0,0,0,1.26,4.11c0,.06.11.1.31.26.9-4,.68-7.92.45-11.85a72.58,72.58,0,0,0-4.84-20.91c-.21-.59-.54-1.18-.18-1.83a74.43,74.43,0,0,0-6-11.95,98.2,98.2,0,0,0-18.16-22.48c-5.85-5.28-12.23-9.76-19.82-12.26a24.61,24.61,0,0,0-12.51-.87,12.13,12.13,0,0,1-7.24-1.1c-6.81-3.06-11.48-8.07-13.13-15.46a21.76,21.76,0,0,1,.59-11.59c1.77-5.47,4.39-10.45,8.8-14.32a23.52,23.52,0,0,1,14.56-5.92c8.78-.5,16.23,2.81,23.1,7.83,8.72,6.38,15.23,14.73,20.94,23.76a152.41,152.41,0,0,1,8.64,15.76c.39.83.69,1,1.21.16a43,43,0,0,0-.42,8.1A61.73,61.73,0,0,0,846,346.67a100.74,100.74,0,0,0,16.19,27.83A124.79,124.79,0,0,0,881.85,394a113.38,113.38,0,0,0,20.49,13.19,79.14,79.14,0,0,0,23.59,7.59,52.46,52.46,0,0,0,22-1.56,22.09,22.09,0,0,0,8.78-4.76c3.78-3.36,4.52-7.77,3.84-12.49-1.11-7.69-4.22-14.65-7.92-21.42A168.83,168.83,0,0,0,939,353.76a148.71,148.71,0,0,0-17.83-19.37,48.77,48.77,0,0,0-9.05-6.64c-2.51-1.42-5.1-2.65-8.1-2.68a6.22,6.22,0,0,0-5.88,3.79,12,12,0,0,0-1.25,4.6c-.43,6,.09,11.82,3.33,17.11a37.39,37.39,0,0,0,7.81,9.31,54.15,54.15,0,0,0,6.34,4.7,41.66,41.66,0,0,0,9.57,4.33,11.22,11.22,0,0,1,3.64,1.78c1.64,1.27,1.79,2.29.37,3.74-2.84,2.9-6.07,4.17-10.17,2.72a29.21,29.21,0,0,1-9.86-6.2c-9.05-8.26-16.13-18.08-22.54-28.44a108.18,108.18,0,0,1-5.67-10c-1.54-3.18-2.39-6.53-1.09-10,2.09-5.47,6-9,11.9-9.87a15.9,15.9,0,0,1,6.36.84,50.41,50.41,0,0,1,13.66,6.29,153.34,153.34,0,0,1,19.62,14.47A173.46,173.46,0,0,1,945,348.89a181.16,181.16,0,0,1,18.84,24.71c6.13,9.75,11.72,19.8,15.32,30.8a66.41,66.41,0,0,1,2.71,13.07,51.1,51.1,0,0,1-3.4,24.36,23.88,23.88,0,0,1-5.38,8.41c-.54.54-1,1.14-1.61,1.79,1.78.63,3.53-.21,5.06.66-1.63,1.31-3.5.65-5.28.61-9.26-.23-18.32.77-27,4.14a13,13,0,0,0-2.34,1.22c-3.05,2-3.29,4.13-.79,6.84.43.47,1,.86.85,1.61-.92,1-2.28.92-3.39,1.44a9.17,9.17,0,0,0-2.36,1,.79.79,0,0,1-.88-.11c-8.31-5.5-17.2-5.24-26.33-2.63-.23.07-.45.16-.67.25-4.18,1.67-5,2.89-4.74,7.24-4.64.31-9.21-.32-13.81-.76a112.66,112.66,0,0,1-25.54-5.82,154.27,154.27,0,0,1-25.48-11.51c-7.87-4.39-15.76-8.74-23.23-13.8-1.39-.93-2.74-1.92-4.11-2.88-1.08-5.15-1.08-10.43-2-15.61a44.91,44.91,0,0,1,9-1.92,74.91,74.91,0,0,1,12.43-.34,51.22,51.22,0,0,1,15.67,3,26.6,26.6,0,0,1,2.58,1.25,1.94,1.94,0,0,1,1.3,1.84c-.07.85-.7,1.33-1.54,1.64a51.63,51.63,0,0,1-7.64,1.88,34.69,34.69,0,0,0-7.16,1.83c-3,1.35-3.65,4.17-1.38,6.75A35.42,35.42,0,0,0,839.7,446a83.58,83.58,0,0,0,29,12.08A69.44,69.44,0,0,0,886.21,460a43.68,43.68,0,0,0,22.52-7.11,8.19,8.19,0,0,0,3.51-4.38,6.65,6.65,0,0,0-.82-5.48c-1.65-3-4.23-5.15-7-7.07a105.05,105.05,0,0,0-18.64-9.77c-6.16-2.63-12.47-4.9-18.85-6.95a310.66,310.66,0,0,0-36.76-9.46c-5-.94-10-1.63-15.1-2.21-2.77-.31-5.61.09-8.31-.81-.81-.42-1-1.25-1.14-2-2.82-11.28-8.51-20.88-16.43-29.37-5.08-5.45-10.53-10.23-17.31-13.39-4.68-2.18-9.41-3.2-14.63-1.84q-8.94,2.34-17.74,5.1c-8.1,2.53-9.66,6.64-9.74,14A31.35,31.35,0,0,0,734,395.76c4.12,6.92,10.27,10.27,18.28,10.29a8.09,8.09,0,0,0,1.2-.1,3.71,3.71,0,0,0,1.29-.37c-5.75-3.8-6.07-9.92-6.78-15.82a20.17,20.17,0,0,1,.12-5.75c1.28-7.76,7.86-12.77,15.84-12.18,8.36.63,14.86,4.85,20.8,10.35,5.4,5,7.47,11.19,7.14,18.33a10.76,10.76,0,0,1-2.52,7.07,57.3,57.3,0,0,0-23.49,8.86,11.06,11.06,0,0,0-4.18,14.6c.1.22.16.45.25.67a4.39,4.39,0,0,0-2.78.53,45.91,45.91,0,0,1-12.67,2.31c-4.05.29-8.11.67-12.17.88-11.9.61-20.46-4.73-26.53-14.75a108.8,108.8,0,0,1-12-28.6A78.72,78.72,0,0,1,693,374.14c-.22-7.17.57-14.24,5.17-20.24C699.33,352.39,700.69,351,702,349.61Z" transform="translate(-26.06 -25.1)"/><path class="cls-6" d="M235.41,336.14c1.44-3.11,2.92-6.21,4.33-9.33,4.65-10.26,8.91-20.69,13.8-30.84,5.46-11.32,11.37-22.38,19.29-32.22,6.18-7.67,13.23-14.32,22.22-18.65a32.47,32.47,0,0,1,13.6-3.41,25.35,25.35,0,0,1,21.67,10.72,35.85,35.85,0,0,1,7.24,19.25,21.28,21.28,0,0,1-1.89,10.27,24.89,24.89,0,0,1-14.1,13.61,12.62,12.62,0,0,1-7.07.64c-5.58-1.12-10.81,0-15.89,2.14a64.51,64.51,0,0,0-19.39,13.45,109.51,109.51,0,0,0-17.35,22c-8,.73-16.07,1.32-24.07,2.3C237,336.12,236.21,336.1,235.41,336.14Z" transform="translate(-26.06 -25.1)"/><path class="cls-6" d="M294.57,331.69c1.4-1.61,3.38-2.38,5.16-3.41a80.91,80.91,0,0,1,30.51-10c8.72-1.11,17.44-2,26.22-2.41a62.64,62.64,0,0,1,29.52,6c3.77,1.75,7.54,3.49,11.13,5.59,1.1.64,2.17,1.32,3.7,2.25-3.26.6-6.09.08-8.87.38-.87-.05-1.75-.13-2.62-.13-12.93,0-25.87-.08-38.8,0-9.73.07-19.46.3-29.19.57-8.13.22-16.25.61-24.38.94C296.16,331.51,295.37,331.62,294.57,331.69Z" transform="translate(-26.06 -25.1)"/><path class="cls-17" d="M139.87,374.59a51.63,51.63,0,0,1-7.68-.46,8.33,8.33,0,0,0-7.46,2.34c-3.38,3.14-7.65,4.48-12,5.62a1.17,1.17,0,0,1-1.24-1.9,23.08,23.08,0,0,0,1.67-2.61c.8-1.6.46-2.37-1.2-3.14s-2-1.19-1.6-2.18a2.32,2.32,0,0,1,2.93-1.41,8.37,8.37,0,0,1,1.36.46c4.38,2,8.83,1.54,13.32.41,5.58-1.42,10.84-3.77,16.28-5.58A42.14,42.14,0,0,1,158.82,364a17.14,17.14,0,0,1,3.76.6c1.12.3,1.26,1.05.47,1.93-2.2,2.46-5.15,3.8-8.11,4.95C149.79,373.47,144.5,375,139.87,374.59Z" transform="translate(-26.06 -25.1)"/><path class="cls-2" d="M860.36,103.07a34.68,34.68,0,0,0,10.22-7.42,9.22,9.22,0,0,0,2.11-3.17,36.19,36.19,0,0,0,2.6-15.94,9.31,9.31,0,0,0-1.13-3.88c-.36-.65-.84-1.27-1.68-1s-.65,1-.6,1.63A18.58,18.58,0,0,1,869,84.91,12.93,12.93,0,0,1,867.47,87c-2.22,2.37-4.68,2-6.05-1a10.66,10.66,0,0,1-1-4.4,34.77,34.77,0,0,1,5-18.49c3.58-5.91,9-6.24,13.49-1a23.83,23.83,0,0,1,5.5,13.55c.72,7.79-1.54,15-4.58,22a39.62,39.62,0,0,1-6.33,10.13c-.39.81-.89.89-1.5.22-3.13-1.79-6.6-2.77-9.87-4.2Z" transform="translate(-26.06 -25.1)"/><path class="cls-2" d="M611.71,116.79c.08-.63.53-.92,1-1.21a159.42,159.42,0,0,1,22.14-10.29,122.89,122.89,0,0,1,22.61-6.05,97.76,97.76,0,0,1,22.92-1.06,42.83,42.83,0,0,1,12.18,2.27,7.64,7.64,0,0,1,3.11,1.73c.86.92.58,1.91-.67,2.06a33.83,33.83,0,0,1-5.23.53,147.53,147.53,0,0,0-17.47.57c-13,1-25.79,3.07-38.15,7.4a115,115,0,0,0-19.76,9.15,3.36,3.36,0,0,1-1.76.69l-.24-.26c-.37-.75-.34-1.61-.65-2.38C611.61,118.9,611,117.86,611.71,116.79Z" transform="translate(-26.06 -25.1)"/><path class="cls-18" d="M812.41,181.66a65.36,65.36,0,0,1-20.61,1.74,30.31,30.31,0,0,1-8.2-1.39,11.37,11.37,0,0,1-1.79-.68c-1.16-.63-1.21-1.35-.15-2.14a14.81,14.81,0,0,1,3.8-2,58,58,0,0,1,22.2-3.76c.64,0,1.28-.06,1.91-.09a164.31,164.31,0,0,0,19.85-.45c5.8-.62,11.29-2.07,15.78-6.11,1.26-1.13,2.67-1.77,4.35-.84,1.37.76,1.54,1.74.47,2.87-.44.46-1,.81-1.44,1.26-1.12,1.15-1.15,2.24.12,3.26,1.1.9,2.39,1.58,3.57,2.39.52.35,1.23.72,1.1,1.43s-1,1-1.68,1.08c-5.76.77-11.51.77-17-1.23a13.87,13.87,0,0,0-11.53.64A53.31,53.31,0,0,1,812.41,181.66Z" transform="translate(-26.06 -25.1)"/><path class="cls-6" d="M872,108a2.47,2.47,0,0,0,1.51-.22,34.33,34.33,0,0,1,11.56.8,16.94,16.94,0,0,1,6.78,3.32c2,1.73,3,3.84,2.26,6.55-1.86,3.67-5.28,5.25-8.93,6.2a28,28,0,0,1-17.52-.83,11.64,11.64,0,0,1-5.53-4c-1.72-2.45-1.41-4.71.48-7a10.75,10.75,0,0,1,5.08-3.43C869.11,109,870.54,108.52,872,108Z" transform="translate(-26.06 -25.1)"/><path class="cls-10" d="M997.08,195.6c5.53,1.76,11,3.78,16.7,4.92a20.66,20.66,0,0,0,9.45-.06,19.16,19.16,0,0,0,3.68-1.68,2.6,2.6,0,0,1,2.06-.32,1.9,1.9,0,0,1,1.31,1.57,1.55,1.55,0,0,1-.8,1.61c-.89.6-2.22.83-2.17,2.26a5.29,5.29,0,0,0,1.49,2.93c.24.32.46.65.69,1s.61,1,.22,1.53a1.34,1.34,0,0,1-1.52.41c-3.74-.85-7.58-1.61-10.52-4.26a8.89,8.89,0,0,0-9.1-1.92,35.59,35.59,0,0,1-3.76.68l-7.61-.05a1.82,1.82,0,0,1-1.56.39,33.75,33.75,0,0,1-13.77-5c-.77-.51-1.68-1-1.53-2.19,0-1.42,1.12-1.6,2.09-1.88a25.32,25.32,0,0,1,7.1-.66h2.39A5.08,5.08,0,0,1,997.08,195.6Z" transform="translate(-26.06 -25.1)"/><path class="cls-2" d="M997.08,195.6l-5.16-.71-2.48-2.67a21.13,21.13,0,0,0,11.3-8.78c2-3.15,1.9-6.48.78-9.88-.21-.64-.55-1.32-1.24-1.28s-1.15.76-1.21,1.55c0,.47,0,1,0,1.43-.08,1.84-.77,2.57-2.58,2.74-3.59.33-5.82-2.56-4.47-5.84a14.46,14.46,0,0,1,4.24-5.71c2.19-1.81,4.41-1.65,6.4.36a8.52,8.52,0,0,1,.77.92,18.28,18.28,0,0,1,.42,20.45A37.14,37.14,0,0,1,997.08,195.6Z" transform="translate(-26.06 -25.1)"/><path class="cls-2" d="M878.12,266.38a8.84,8.84,0,0,1-17.68-.06c.1-5.29,3.82-8.94,9-8.84S878,261.32,878.12,266.38Z" transform="translate(-26.06 -25.1)"/><path class="cls-6" d="M611.71,116.79l.61,3.3c.37.79-.11,1.69.35,2.46v0a2.87,2.87,0,0,1-1.21,1.1,99.24,99.24,0,0,0-18.55,15.54c-.63.67-1.14,1.59-2.27,1.56a52.78,52.78,0,0,1-7.2-4.81c.57-1.24,1.79-1.78,2.79-2.55a230.33,230.33,0,0,1,23.25-15.94A3.2,3.2,0,0,1,611.71,116.79Z" transform="translate(-26.06 -25.1)"/><path class="cls-6" d="M908,126.36c3.13.43,6.3.54,9.35,1.46a12.13,12.13,0,0,1,2.85,1.14c1.75,1.08,1.78,2.22.12,3.47-.31.23-.65.44-1,.65a46.63,46.63,0,0,1-9.35,1.78,52.91,52.91,0,0,1-10.75-.11,44.34,44.34,0,0,1-6.35-1.08,15.21,15.21,0,0,1-3.3-1.37c-1.75-1-1.76-2.17-.07-3.19a20.73,20.73,0,0,1,7.5-2.27C900.62,126.23,904.29,126.46,908,126.36Z" transform="translate(-26.06 -25.1)"/><path class="cls-12" d="M980.34,197.43c2.48,2.78,5.88,3.93,9.22,5.11a35,35,0,0,0,7.64,1.66c.95.8,2.18.2,3.23.77-2.09-.13-4.06.6-6.13.59-4.79,0-9.61.23-14.39-.06s-9.7-.57-14.34-2.24c-1-.34-2.27-.47-2.34-1.71s1.22-1.78,2.26-2.12a39.36,39.36,0,0,1,7.22-1.56A41.48,41.48,0,0,1,980.34,197.43Z" transform="translate(-26.06 -25.1)"/><path class="cls-2" d="M854.74,249.69c2.87-.34,5.79,2.2,5.85,5.63a5.48,5.48,0,0,1-5.47,5.47,5.54,5.54,0,0,1-5.79-5.67A5.2,5.2,0,0,1,854.74,249.69Z" transform="translate(-26.06 -25.1)"/><path class="cls-12" d="M987.12,216.09c-2.31-.59-4.7-.31-6.85-1.33-.91-.44-1.74-.85-1.76-2s.93-1.35,1.66-1.81a7.66,7.66,0,0,1,3.22-.83,20.41,20.41,0,0,1,9.9.63c.15.06.31.07.46.14.89.4,1.78.94,1.89,2,.14,1.23-1,1.45-1.87,1.85C991.65,215.77,989.26,215.51,987.12,216.09Z" transform="translate(-26.06 -25.1)"/><path class="cls-19" d="M1004.44,207.88a28.64,28.64,0,0,1,8.81-.41,11,11,0,0,1,3,.69c1,.39,2.31.78,2.35,2.09s-1.23,1.72-2.27,2.11a14,14,0,0,1-4.44.9l-2.16.06a16.86,16.86,0,0,1-6-1c-1-.35-2.09-.56-2.2-1.82s1-1.83,2-2.31A7.28,7.28,0,0,1,1004.44,207.88Z" transform="translate(-26.06 -25.1)"/><path class="cls-6" d="M877.18,130.7a7.11,7.11,0,0,1,5.08,1.32c1.36,1.09,1.4,2.37,0,3.32a9.49,9.49,0,0,1-9.94.06,2,2,0,0,1,.06-3.41A6.6,6.6,0,0,1,877.18,130.7Z" transform="translate(-26.06 -25.1)"/><path class="cls-2" d="M842,250.92a3.93,3.93,0,0,1-3.72-3.86,3.86,3.86,0,0,1,4-4.06,4.11,4.11,0,0,1,4,3.9A4.5,4.5,0,0,1,842,250.92Z" transform="translate(-26.06 -25.1)"/><path class="cls-13" d="M877.06,276.61a2.68,2.68,0,0,1,2.75,2.7,2.78,2.78,0,0,1-2.71,2.8,3.1,3.1,0,0,1-2.77-2.78A2.75,2.75,0,0,1,877.06,276.61Z" transform="translate(-26.06 -25.1)"/><path class="cls-20" d="M831.09,244.5a2.67,2.67,0,1,1,2.82-2.65A2.85,2.85,0,0,1,831.09,244.5Z" transform="translate(-26.06 -25.1)"/><path class="cls-12" d="M257,473.92c-8.44-.35-16.85-.87-24.9-3.79a17.61,17.61,0,0,1-4.86-2.54c-2.72-2.1-3-4.69-.31-7a13.43,13.43,0,0,1,4.1-2.44,64.89,64.89,0,0,1,12.48-3.09,95.26,95.26,0,0,1,19.08-.8c7.23.38,14.42,1.31,21.18,4.24a12.29,12.29,0,0,1,3.62,2.29c2.22,2.11,2.16,4.27-.08,6.33a14.17,14.17,0,0,1-4.5,2.7,53,53,0,0,1-13.2,3.1A93.29,93.29,0,0,1,257,473.92Z" transform="translate(-26.06 -25.1)"/><path class="cls-12" d="M206.56,466.24a28.23,28.23,0,0,1,11.88,1.92,9.72,9.72,0,0,1,3.8,2.43,3.45,3.45,0,0,1,.11,5.14,9.91,9.91,0,0,1-4.53,3,35,35,0,0,1-16.25,1.52c-3.61-.52-7.06-1.25-10.1-3.36-2.85-2-2.89-5-.09-7.09a19.39,19.39,0,0,1,7.73-3.07A26.76,26.76,0,0,1,206.56,466.24Z" transform="translate(-26.06 -25.1)"/><path class="cls-7" d="M789.35,407.58c.29-.83.58-1.65.85-2.48a20.2,20.2,0,0,0-4.33-20.71,37.6,37.6,0,0,0-12.74-9.6c-4.54-2.06-9.24-3-14.19-1.88a13.13,13.13,0,0,0-10.34,12,34.86,34.86,0,0,0,1.75,13.92c1,3.08,2.77,5.55,6.2,6.69a4.69,4.69,0,0,1-3.38,1.07c-8.34.36-15-2.81-19.45-9.93-2.73-4.34-3.83-9.25-4.41-14.3a23.75,23.75,0,0,1,.64-9.46,10.77,10.77,0,0,1,6-7.05,66.14,66.14,0,0,1,8.62-2.9c4.2-1.27,8.44-2.4,12.68-3.52,5-1.32,9.62-.46,14.19,1.57a51.75,51.75,0,0,1,17.64,13.32c2.13,2.39,4.17,4.84,6.2,7.31a50.82,50.82,0,0,1,8.29,14.76,75.47,75.47,0,0,1,3.16,10.29l-.15.12a5.9,5.9,0,0,1-1.73.08c-4.72-.47-9.4.07-14.09.52Z" transform="translate(-26.06 -25.1)"/><path class="cls-7" d="M942,467.11c-.35-.68-1.09-.89-1.62-1.36-2.43-2.12-2.46-4.53,0-6.72a15.09,15.09,0,0,1,5.21-2.85,71.27,71.27,0,0,1,17.72-3.43c4.45-.39,8.88.07,13.32-.06,6.8.44,13.51,1.32,19.89,3.9a14.32,14.32,0,0,1,4.31,2.55c2.31,2.13,2.26,4.55-.2,6.54a22.5,22.5,0,0,1-8.43,3.87,83.26,83.26,0,0,1-23.26,2.55,86.37,86.37,0,0,1-18.06-2A65.52,65.52,0,0,1,942,467.11Z" transform="translate(-26.06 -25.1)"/><path class="cls-7" d="M903.63,474.27c-1.51-2.9-1-4.77,1.9-6.57a22.08,22.08,0,0,1,8.33-2.82,35.51,35.51,0,0,1,15.61.85,13.62,13.62,0,0,1,6.78,3.79c1,2.87.66,4.24-1.8,5.92a19.2,19.2,0,0,1-8,2.92,40.84,40.84,0,0,1-15-.31A16.81,16.81,0,0,1,903.63,474.27Z" transform="translate(-26.06 -25.1)"/><path class="cls-21" d="M809.49,423.89a1.44,1.44,0,0,1,.9,1.3c.34,2.92.69,5.84,1,8.76a21.78,21.78,0,0,0,.43,4,1.3,1.3,0,0,1-.34,1.53,33.59,33.59,0,0,1-5.8-5.63c-3.07-4.21-2.38-7.08,2.29-9.33C808.45,424.3,809,424.1,809.49,423.89Z" transform="translate(-26.06 -25.1)"/><path class="cls-8" d="M804.87,406.91a3.18,3.18,0,0,1,1.73-.08A1.39,1.39,0,0,1,804.87,406.91Z" transform="translate(-26.06 -25.1)"/><path class="cls-7" d="M74.88,228.64a11.63,11.63,0,0,1-4.92-.9c-2.32-1-2.91-2.84-1.69-5.08a6,6,0,0,1,1.51-1.84c5.54-4.33,11.75-6.26,18.78-5.17a5.66,5.66,0,0,1,1.58.53c2.38,1.15,2.9,3.1,1.39,5.31a11.35,11.35,0,0,1-3.12,2.94A26.6,26.6,0,0,1,74.88,228.64Z" transform="translate(-26.06 -25.1)"/><path class="cls-7" d="M59.36,223.75a9,9,0,0,1,3.29.54c2.62,1.13,3.31,3.56,1.62,5.84-2.47,3.37-8.38,5.53-12.43,4.56s-4.87-4-2.15-6.93S55.65,223.91,59.36,223.75Z" transform="translate(-26.06 -25.1)"/><path class="cls-22" d="M69.16,238.9c-1.18-.18-2.76,0-3.52-1.59-.53-1.11.28-2.58,2-3.68a9.67,9.67,0,0,1,5.89-1.57,3,3,0,0,1,2.93,1.68c.39,1-.27,2.27-1.53,3.24A11.3,11.3,0,0,1,69.16,238.9Z" transform="translate(-26.06 -25.1)"/><path class="cls-7" d="M841.14,365.33c5.67,12.14,7.05,29.05,4.73,36.37-1-.42-1-1.39-1.23-2.16-2.34-9.77-7.48-18.07-13.51-25.91-2.38-3.1-5.07-5.94-7.7-8.84L821.84,363C828.31,363.46,834.74,364.27,841.14,365.33Z" transform="translate(-26.06 -25.1)"/><path class="cls-18" d="M914.57,422.68a33.34,33.34,0,0,1,12.56,2.69,86.41,86.41,0,0,0,13,5,14.13,14.13,0,0,0,9.8-.56c.29-.13.6-.23.9-.33a1.62,1.62,0,0,1,2.13,1c.42.9,0,1.47-.83,1.94-2.38,1.44-2.43,1.72-1.09,4.06.45.79,1.49,1.64.76,2.52s-1.79.13-2.69-.16a19.08,19.08,0,0,1-8.35-5A6.17,6.17,0,0,0,935.5,432c-2.94.15-5.85.6-8.83.18a33.4,33.4,0,0,1-14.83-5.71c-.93-.65-2.37-1.35-1.93-2.72.4-1.21,2-.8,3-1.09A6.64,6.64,0,0,1,914.57,422.68Z" transform="translate(-26.06 -25.1)"/><path class="cls-7" d="M927.28,450.84a12.33,12.33,0,0,1,7,2c2.25,1.57,2.29,3.85.09,5.51-2.51,1.88-5.49,2.15-8.44,2a12.08,12.08,0,0,1-5.71-1.6c-2.88-1.72-3-4.48-.11-6.21A12.87,12.87,0,0,1,927.28,450.84Z" transform="translate(-26.06 -25.1)"/><path class="cls-23" d="M970.63,428.78a12.06,12.06,0,0,1-7-2,8.59,8.59,0,0,0-6.59-1.15A24.7,24.7,0,0,1,942,423.06a5.45,5.45,0,0,1-1-.68c-.12-.08-.15-.27-.29-.53.52-.85,1.44-.73,2.26-.79a29.2,29.2,0,0,1,11.1,1.26,58.51,58.51,0,0,0,7.66,1.84,11.44,11.44,0,0,0,6.55-.63,2.39,2.39,0,0,1,1.59-.37,1,1,0,0,1,.54,1.64c-1.18,1.39-1.19,1.39-.16,2.74A1.36,1.36,0,0,1,970.63,428.78Z" transform="translate(-26.06 -25.1)"/><path class="cls-8" d="M612.67,122.55c-.64-.74-.42-1.61-.35-2.46A3.31,3.31,0,0,1,612.67,122.55Z" transform="translate(-26.06 -25.1)"/></svg>