<svg id="Livello_1" data-name="Livello 1" xmlns="http://www.w3.org/2000/svg" viewBox="0 0 84.24 30.17"><defs><style>.cls-1{fill:#e3e2ed;}</style></defs><title>FishWhite</title><path class="cls-1" d="M603.62,963c-.92-2.88-5-2.66-5.66-5.27a4,4,0,0,1,1.48-3.81c2.09-1.62,4.52,1,8.35,2.82,0,0,1.44.66,7.14,1.45,9.36,1.3,29.18-7.55,32.1-8.81,16.37-7,34.17-4.32,35.05-1.09s-13,13.35-30.36,15.14-22.26-6.5-29.92,1.39c-6.06,6.24-9.87,7.46-17.49,9.91,0,0-3.7,1.19-4.35-.51C599.1,971.89,604.85,966.79,603.62,963Z" transform="translate(-597.88 -944.91)"/></svg>