<svg id="Livello_1" data-name="Livello 1" xmlns="http://www.w3.org/2000/svg" viewBox="0 0 90.25 12.4"><defs><style>.cls-1{fill:#10093e;}</style></defs><title>FishBlue</title><path class="cls-1" d="M601.69,959c-.13-1.57-4.31-2-4.26-3.41,0-.8,1.43-1.47,2.56-1.7,2.55-.53,4.27,1.14,7.66,2.55a50.51,50.51,0,0,0,6.81,1.7c9.11,1.94,31.61.23,34.91,0,18.51-1.27,35.76,2.53,35.76,4.26s-16.85,4.89-34.91,3.41-20.71-6.3-30.65-3.41c-7.86,2.29-12.05,2.38-20.43,2.55,0,0-4.08.09-4.26-.85C594.64,962.85,601.87,961.09,601.69,959Z" transform="translate(-594.87 -953.8)"/></svg>