<svg id="Livello_1" data-name="Livello 1" xmlns="http://www.w3.org/2000/svg" xmlns:xlink="http://www.w3.org/1999/xlink" viewBox="0 0 462.47 657.34"><defs><style>.cls-1,.cls-23{fill:none;}.cls-17,.cls-2{fill:#54acc7;}.cls-11,.cls-13,.cls-17,.cls-2,.cls-23,.cls-3,.cls-4,.cls-5,.cls-6,.cls-7{stroke:#1e1e1c;}.cls-11,.cls-13,.cls-17,.cls-2,.cls-23,.cls-3,.cls-4,.cls-5,.cls-6,.cls-7,.cls-8,.cls-9{stroke-miterlimit:10;}.cls-2{stroke-width:1.37px;}.cls-3{fill:#81cef0;}.cls-17,.cls-23,.cls-3,.cls-4{stroke-width:1.33px;}.cls-4{fill:#f7c2be;}.cls-5{fill:#63a0ac;stroke-width:1.25px;}.cls-6{fill:#5cbaea;stroke-width:0.99px;}.cls-10,.cls-11,.cls-7{fill:#1e1e1c;}.cls-7{stroke-width:1.33px;}.cls-13,.cls-8,.cls-9{fill:#fff;}.cls-8,.cls-9{stroke:#fff;}.cls-8{stroke-width:0.34px;}.cls-9{stroke-width:0.06px;}.cls-11{stroke-width:1.64px;}.cls-12{clip-path:url(#clip-path);}.cls-13{stroke-width:1.38px;}.cls-14{clip-path:url(#clip-path-2);}.cls-15{clip-path:url(#clip-path-3);}.cls-16{clip-path:url(#clip-path-4);}.cls-18{clip-path:url(#clip-path-5);}.cls-19{clip-path:url(#clip-path-6);}.cls-20{clip-path:url(#clip-path-7);}.cls-21{clip-path:url(#clip-path-8);}.cls-22{clip-path:url(#clip-path-9);}</style><clipPath id="clip-path" transform="translate(-71.18 -124.9)"><rect class="cls-1" x="222.7" y="301.22" width="166.39" height="53.86" rx="6.56"/></clipPath><clipPath id="clip-path-2" transform="translate(-71.18 -124.9)"><rect class="cls-1" x="179.18" y="579.46" width="138.25" height="79.66"/></clipPath><clipPath id="clip-path-3" transform="translate(-71.18 -124.9)"><rect class="cls-1" x="277.86" y="579.46" width="138.25" height="79.66"/></clipPath><clipPath id="clip-path-4" transform="translate(-71.18 -124.9)"><rect class="cls-1" x="199.66" y="640.88" width="39.91" height="18.25"/></clipPath><clipPath id="clip-path-5" transform="translate(-71.18 -124.9)"><rect class="cls-1" x="228.27" y="640.88" width="39.91" height="18.25"/></clipPath><clipPath id="clip-path-6" transform="translate(-71.18 -124.9)"><rect class="cls-1" x="257.04" y="640.88" width="39.91" height="18.25"/></clipPath><clipPath id="clip-path-7" transform="translate(-71.18 -124.9)"><rect class="cls-1" x="298.35" y="640.88" width="39.91" height="18.25"/></clipPath><clipPath id="clip-path-8" transform="translate(-71.18 -124.9)"><rect class="cls-1" x="326.96" y="640.88" width="39.91" height="18.25"/></clipPath><clipPath id="clip-path-9" transform="translate(-71.18 -124.9)"><rect class="cls-1" x="355.73" y="640.88" width="39.91" height="18.25"/></clipPath></defs><title>Ippopotamo</title><ellipse class="cls-2" cx="226.44" cy="371.93" rx="184.03" ry="219.48"/><ellipse class="cls-3" cx="213.64" cy="183.13" rx="60.82" ry="43.83" transform="translate(-119.17 161.81) rotate(-62.2)"/><ellipse class="cls-4" cx="221.53" cy="179.87" rx="33.42" ry="24.09" transform="translate(-112.07 167.04) rotate(-62.2)"/><ellipse class="cls-3" cx="384.04" cy="184.63" rx="43.83" ry="60.82" transform="translate(-112.96 75.51) rotate(-27.8)"/><ellipse class="cls-4" cx="384.53" cy="180.69" rx="24.09" ry="33.42" transform="translate(-111.07 75.29) rotate(-27.8)"/><ellipse class="cls-5" cx="228.48" cy="137.89" rx="127.72" ry="114.57"/><ellipse class="cls-3" cx="229.06" cy="165.06" rx="144.5" ry="66.41"/><circle class="cls-6" cx="203.74" cy="66.64" r="24.78"/><circle class="cls-6" cx="254.6" cy="66.64" r="24.78"/><circle class="cls-7" cx="204.4" cy="66.64" r="20.29"/><circle class="cls-7" cx="253.72" cy="66.64" r="20.29"/><circle class="cls-8" cx="254.6" cy="65.06" r="5.18"/><circle class="cls-9" cx="261.5" cy="68.72" r="0.86"/><circle class="cls-8" cx="203.74" cy="66.64" r="5.18"/><circle class="cls-9" cx="210.64" cy="70.29" r="0.86"/><path class="cls-10" d="M333.87,164.85a20.77,20.77,0,0,1,10.71,2.88,21.46,21.46,0,0,1,7.66,8.16,25.37,25.37,0,0,1,3.12,10.82,30.81,30.81,0,0,1-1.45,11.1l-.12,0a49.85,49.85,0,0,0,.29-11,30,30,0,0,0-2.75-10.44,20.66,20.66,0,0,0-7.09-8.09,20.32,20.32,0,0,0-10.37-3.3Z" transform="translate(-71.18 -124.9)"/><path class="cls-10" d="M266.62,163.91a20.18,20.18,0,0,0-10.37,3.29,20.59,20.59,0,0,0-7.09,8.09,29.74,29.74,0,0,0-2.75,10.44,48.64,48.64,0,0,0,.29,11l-.13,0a31,31,0,0,1-1.45-11.1,25.7,25.7,0,0,1,3.12-10.82,21.56,21.56,0,0,1,7.67-8.16,20.67,20.67,0,0,1,10.71-2.87Z" transform="translate(-71.18 -124.9)"/><ellipse class="cls-11" cx="243.14" cy="236.62" rx="9.71" ry="17.32" transform="translate(-95.04 -97.6) rotate(-6.13)"/><ellipse class="cls-11" cx="355.15" cy="236.62" rx="17.32" ry="9.71" transform="translate(10.8 439.59) rotate(-83.87)"/><path class="cls-10" d="M239.35,214.61a10.19,10.19,0,0,0-8.82,5.76,15,15,0,0,0-1.39,5.27,24.61,24.61,0,0,0,.14,5.55h-.06a15.59,15.59,0,0,1-.73-5.61,12.85,12.85,0,0,1,1.58-5.47,10.8,10.8,0,0,1,3.87-4.12,10.43,10.43,0,0,1,5.41-1.45Z" transform="translate(-71.18 -124.9)"/><path class="cls-10" d="M358.4,215.06a10.46,10.46,0,0,1,5.41,1.45,10.94,10.94,0,0,1,3.87,4.12,12.89,12.89,0,0,1,1.58,5.47,15.59,15.59,0,0,1-.73,5.61h-.06a24.59,24.59,0,0,0,.14-5.55,15.08,15.08,0,0,0-1.39-5.27,10.19,10.19,0,0,0-8.82-5.76Z" transform="translate(-71.18 -124.9)"/><g class="cls-12"><path class="cls-13" d="M271.27,329.47h0c-6.13-1.13-10.28-7.35-9.21-13.83l2.45-14.83c1.07-6.48,7-10.85,13.1-9.72h0c6.14,1.13,10.28,7.35,9.21,13.83l-2.45,14.82C283.3,326.22,277.41,330.6,271.27,329.47Z" transform="translate(-71.18 -124.9)"/><path class="cls-13" d="M326,281.62h0c6.13-1.19,12.06,3.13,13.19,9.59L341.78,306c1.12,6.46-3,12.73-9.09,13.92h0c-6.13,1.19-12.06-3.13-13.19-9.6l-2.58-14.8C315.8,289.07,319.89,282.81,326,281.62Z" transform="translate(-71.18 -124.9)"/></g><path class="cls-10" d="M199.66,267.74c20.79,20.42,49.77,30.64,78.19,34.41,30.37,4,62.48,1.24,91.09-10.06,14.54-5.74,28.16-13.82,39.3-24.87a1,1,0,0,0-1.44-1.44c-20.4,20.24-49,30.4-77,34.26-29.46,4-60.53,1.54-88.47-8.92-14.88-5.57-28.88-13.64-40.25-24.82-.94-.91-2.38.52-1.44,1.44Z" transform="translate(-71.18 -124.9)"/><path class="cls-10" d="M212.65,258.34c-9.79.09-19.45,9.24-20.15,19-.1,1.31,1.94,1.3,2,0,.62-8.61,9.5-16.86,18.12-16.93a1,1,0,0,0,0-2Z" transform="translate(-71.18 -124.9)"/><path class="cls-10" d="M396.56,260.38c8.62.07,17.5,8.32,18.12,16.93.1,1.3,2.13,1.31,2,0-.71-9.73-10.37-18.88-20.16-19a1,1,0,0,0,0,2Z" transform="translate(-71.18 -124.9)"/><g class="cls-14"><ellipse class="cls-3" cx="177.13" cy="534.22" rx="47.09" ry="59.35"/></g><g class="cls-15"><ellipse class="cls-3" cx="275.81" cy="534.22" rx="47.09" ry="59.35"/></g><g class="cls-16"><circle class="cls-17" cx="148.44" cy="534.22" r="13.59"/></g><g class="cls-18"><circle class="cls-17" cx="177.05" cy="534.22" r="13.59"/></g><g class="cls-19"><circle class="cls-17" cx="205.82" cy="534.22" r="13.59"/></g><g class="cls-20"><circle class="cls-17" cx="247.12" cy="534.22" r="13.59"/></g><g class="cls-21"><circle class="cls-17" cx="275.73" cy="534.22" r="13.59"/></g><g class="cls-22"><circle class="cls-17" cx="304.5" cy="534.22" r="13.59"/></g><path class="cls-10" d="M200.49,659.12,207,588.06l10.44-113.33,2.4-26.11c.1-1.06-1.56-1.05-1.65,0l-6.55,71.06L201.24,633l-2.41,26.11c-.09,1.06,1.56,1.06,1.66,0Z" transform="translate(-71.18 -124.9)"/><path class="cls-10" d="M394.92,659.12l-6.59-71.59-10.56-114.7-2.42-26.26c-.1-1.05-1.76-1.06-1.66,0l6.59,71.59,10.57,114.71,2.41,26.25c.1,1,1.76,1.06,1.66,0Z" transform="translate(-71.18 -124.9)"/><path class="cls-10" d="M299.17,659.12l-.52-82.27-.83-131.66-.19-30.07a.83.83,0,0,0-1.65,0l.52,82.27.82,131.66.19,30.07a.83.83,0,0,0,1.66,0Z" transform="translate(-71.18 -124.9)"/><ellipse class="cls-5" cx="136.41" cy="611.45" rx="54.74" ry="92.58" transform="translate(-337.02 6.26) rotate(-27.37)"/><ellipse class="cls-5" cx="458.86" cy="619.29" rx="92.58" ry="54.74" transform="translate(-373.24 617.16) rotate(-62.63)"/><line class="cls-23" x1="129.18" y1="535.09" x2="325.15" y2="535.09"/></svg>