<?xml version="1.0" encoding="utf-8"?>
<!-- Generator: Adobe Illustrator 23.0.1, SVG Export Plug-In . SVG Version: 6.00 Build 0)  -->
<svg version="1.1" id="Livello_1" xmlns="http://www.w3.org/2000/svg" xmlns:xlink="http://www.w3.org/1999/xlink" x="0px" y="0px"
	 viewBox="0 0 1197.7 566.8" style="enable-background:new 0 0 1197.7 566.8;" xml:space="preserve">
<style type="text/css">
	.st0{opacity:0.4;}
	.st1{clip-path:url(#SVGID_2_);}
	.st2{fill:#A3DBEF;stroke:#A3DBEF;stroke-width:5.82;stroke-miterlimit:10;}
	.st3{clip-path:url(#SVGID_4_);}
	.st4{fill:#A3DBEF;stroke:#A3DBEF;stroke-width:4.92;stroke-miterlimit:10;}
</style>
<title>Onde_ok_back</title>
<g>
	<g id="Livello_1-2">
		<g class="st0">
			<g>
				<defs>
					<path id="SVGID_1_" d="M365.1-1h818.8c7,0,12.7,5.7,12.7,12.7V426c0,7-5.7,12.7-12.7,12.7H365.1c-7,0-12.7-5.7-12.7-12.7V11.7
						C352.5,4.7,358.1-1,365.1-1z"/>
				</defs>
				<clipPath id="SVGID_2_">
					<use xlink:href="#SVGID_1_"  style="overflow:visible;"/>
				</clipPath>
				<g class="st1">
					<path class="st2" d="M528.3,4.6c-6.9,15.9-46.5,107.4-38.2,162.6c2.4,15.9,8.4,26.5,19.1,45.2c2.3,4.1,17.5,30.2,35.4,43.7
						c45,33.8,138.1,10.2,140.6-51.2c0.4-10.3-1.8-18.4-3.4-24.1c-16.5-60.2-76.2-20.7-76.5,0c-0.1,6.4,5.4,16.3,9,15.1
						c1.3-0.4,2.2-1.6,2.2-3c0.3-2.4-1.2-4.4-1.1-6c0.4-6,21.8-7.1,22.5,3c0.3,5.4-5.3,12.4-7.9,15c-16.2,16.8-38.3-8.6-38.2-27.1
						c0-6.1,2.5-11.9,10.1-21.1c14.8-17.8,35.5-32,96.7-21.1c4.4,0.8,12.6,2.4,22.5,12c4.1,4,11.1,10.5,15.8,21.1
						c12.6,28.4,14.3,86.6,7.9,117.4c-1,4-1.7,8-2.2,12c-3.1,25.7,3.7,52.4,5.7,60.3c18.6,74.1,87.3,62.1,97.8,60.2
						c4.2-0.7,8.3-1.7,12.4-3c22.8-7,42.8-13.2,46.1-39.2c1.6-12.5-1.3-25.5-2.3-30.1c-11.6-53.5-49.4-41.2-73.1-33.1
						c-0.6,0.2-4.7,1.7-9,9c-1.7,2.9-3,5.1-3.4,9c-1.1,9.8,3.6,24.9,7.9,24.1c2.3-0.4,4.7-5.7,4.5-9c-0.2-2.8-2.1-3.1-2.2-6
						c-0.2-3.9,2.9-8.4,3.4-9c6.5-9.2,21.6-13.7,23.6,0c1.2,8.1-2.6,20.5-5.6,27.1c-15.4,33.3-50.8-0.1-51.7-30.1
						c-0.2-6.8,1.4-13.2,4.5-21.1c20.2-50.9,60.6-50.1,91.1-21.1c7.7,7.3,15.8,15,24.7,33.1c14,28.1,15.6,52.2,28.1,75.3
						c3.6,6.6,10.8,18.2,29.2,27.1c14.4,6.9,47.8,27.4,87.7-3c2.3-1.8,10.3-4.7,19.1-18.1c5.4-8.2,15.1-23.1,15.7-45.2
						c0.5-18.3-5.5-33.1-7.9-39.1c0,0-24.4-61.5-77.6-6c-1.5,1.8-2.7,3.8-3.4,6c-2.1,6-3.1,15.7-2.2,24.1
						c2,18.7,12.7,21.6,13.5,18.1c0.4-1.9-2.2-5.3-2.2-12c-0.1-9.3,4.7-16.7,5.6-18.1c8.7-13.3,23.5-6.4,25.9,12
						c1.4,10.8-1.9,22.7-2.2,24.1c-12.6,45.1-63.9,13.8-66.3-21.1c-0.2-3.6,0-8.2,0-9c0.5-13.8,4.4-27.2,11.2-39.1
						c16.7-29.9,46.1-27.1,46.1-27.1c20.5,1.9,29.6,8.5,54,18.1c36,14.1,56.4,15.7,77.6,3c18.2-11,25.2-25.5,27-42.2
						c1.5-15-1.4-29.2-2.2-33.1c-14.9-71.3-75.6-31.4-77.6-30.2c-6,4-8.1,11.1-9,15.1c-1.2,5.9-1.6,12-1.1,18.1
						c2.3,21.7,19.7,24.9,20.2,21.1c0.3-2.1-4.6-5.6-4.5-12c0.1-8.7,9.1-14.4,10.1-15.1c9.4-5.8,22.7-2.7,23.6,9
						c1,12.3-11.6,33.8-23.6,39.1c-7.9,3.5-14.1-0.4-18-3c-5.6-3.7-22.2-14.6-27-48.2c-2.6-18.3-0.7-35.9,0-42.1
						c8.9-81,109.7-129.7,110.7-166.6C1200.1-104.1,627.2-223.7,528.3,4.6z"/>
				</g>
			</g>
			<g>
				<defs>
					<path id="SVGID_3_" d="M548.8,438.7H16.3c-7,0-12.7-5.7-12.7-12.7V11.7C3.6,4.7,9.3-1,16.3-1h532.6c7,0,12.7,5.7,12.7,12.7V426
						C561.5,433,555.8,438.7,548.8,438.7z"/>
				</defs>
				<clipPath id="SVGID_4_">
					<use xlink:href="#SVGID_3_"  style="overflow:visible;"/>
				</clipPath>
				<g class="st3">
					<path class="st4" d="M415.1,213.8c9.6,25.4,65.1-19.4,63.7-46.2c-0.4-8.1-6.1-19.2-7.2-21.1c-10.6-17.8-25.4-32-69-21.1
						c-3.1,0.8-9,2.4-16,12c-5,6.3-8.8,13.5-11.3,21.1c-9,28.4-10.2,86.6-5.6,117.4c0.6,3.9,1.1,6.5,1.6,12
						c2.2,25.7-2.6,52.3-4,60.2c-13.3,74.1-62.3,62.1-69.8,60.2c-3-0.7-6-1.7-8.8-3c-16.3-7-30.6-13.2-32.9-39.1
						c-1.1-12.5,0.9-25.5,1.6-30.1c8.3-53.5,35.3-41.2,52.2-33.1c0.4,0.2,3.4,1.7,6.4,9c1.3,2.8,2.2,5.9,2.4,9
						c0.8,9.8-2.6,24.9-5.6,24.1c-1.7-0.4-3.3-5.7-3.2-9c0.1-2.8,1.5-3.1,1.6-6c0.2-3.9-2.1-8.4-2.4-9c-4.7-9.2-15.4-13.7-16.9,0
						c-0.8,8.1,1.8,20.5,4,27.1c11,33.3,36.3-0.1,36.9-30.1c0.2-6.8-1-13.2-3.2-21.1c-14.4-50.9-43.3-50.1-65-21.1
						c-5.5,7.3-11.2,15-17.7,33.1c-10,28.1-11.1,52.2-20.1,75.3c-2.6,6.5-7.7,18.2-20.9,27.1c-10.3,6.9-34.1,27.4-62.6-3
						c-1.6-1.7-7.4-4.6-13.7-18.1c-3.8-8.2-10.8-23.1-11.2-45.2c-0.1-13.3,1.8-26.5,5.6-39.1c0,0,17.4-61.5,55.4-6
						c1.1,1.9,1.9,3.9,2.4,6c1.5,6,2.2,15.7,1.6,24.1c-1.4,18.7-9.1,21.6-9.6,18.1c-0.3-1.9,1.6-5.3,1.6-12c0-6.2-1.4-12.4-4-18.1
						c-6.2-13.3-16.8-6.4-18.5,12c-1,10.8,1.3,22.7,1.6,24.1c9,45.1,45.6,13.8,47.4-21.1c0.2-3.6,0-8.2,0-9
						c-0.7-20.7-5.9-33.8-8-39.1C182,255.2,161,258,161,258c-14.6,1.9-21.2,8.5-38.5,18.1c-25.7,14.1-40.3,15.7-55.4,3
						c-13-11-18-25.5-19.3-42.2c-0.6-11.1-0.1-22.2,1.6-33.1c10.6-71.3,54-31.4,55.4-30.1c4.3,4,5.8,11.1,6.4,15.1
						c0.9,6,1.2,12,0.8,18.1c-1.6,21.7-14.1,24.9-14.4,21.1c-0.2-2.1,3.3-5.6,3.2-12.1c-0.1-8.7-6.5-14.4-7.2-15
						c-6.7-5.8-16.2-2.7-16.9,9c-0.7,12.3,8.2,33.8,16.9,39.1c5.6,3.5,10-0.4,12.8-3c4-3.7,15.8-14.6,19.3-48.2
						c1.9-18.3,0.5-35.9,0-42.2C119.3,74.6,5.6,52,5,15.2C3-87.9,453.6-233.7,524.2-5.4c4.9,15.9,33.2,107.4,27.3,162.6
						c-1.7,15.9-6,26.5-13.7,45.2c-1.7,4.1-12.5,30.2-25.3,43.7c-32.1,33.8-119,23.3-120.8-38.1c-0.2-9.4,0.4-18.8,2-28.1
						c11.7-60.3,48.4-35.4,44.7-16.1c-2,10-17.4-3.1-23.3,0c-3.9,2-4.2,11.5-4.9,16.1c-1.5,9.9,0.8,19.4,3.2,28.6
						C413.9,210.1,414.4,212,415.1,213.8z"/>
				</g>
			</g>
		</g>
	</g>
</g>
</svg>
