<svg id="Livello_1" data-name="Livello 1" xmlns="http://www.w3.org/2000/svg" xmlns:xlink="http://www.w3.org/1999/xlink" viewBox="0 0 1142.31 193.98"><defs><style>.cls-1{fill:none;}.cls-2{clip-path:url(#clip-path);}.cls-3{clip-path:url(#clip-path-2);}.cls-4{fill:#f29100;}</style><clipPath id="clip-path" transform="translate(-71.36 -642.94)"><rect class="cls-1" x="92.34" y="687.76" width="1095.33" height="544.49" rx="12"/></clipPath><clipPath id="clip-path-2" transform="translate(-71.36 -642.94)"><rect class="cls-1" x="-27.84" y="688.66" width="1262.38" height="153.11" rx="12" transform="translate(1206.7 1530.43) rotate(180)"/></clipPath></defs><title>Onde</title><g class="cls-2"><g class="cls-3"><path class="cls-4" d="M1150.08,687.09c11.14,5.54,75.15,37.39,61.75,56.63-3.86,5.55-13.57,9.23-30.88,15.73a317.26,317.26,0,0,1-57.21,15.2c-72.72,11.76-223,3.57-227-17.82-.67-3.58,2.95-6.43,5.45-8.39,26.66-21,123-7.21,123.51,0,.17,2.24-8.79,5.66-14.53,5.24-.5,0-3.21-.23-3.63-1s2-1.52,1.82-2.1c-.58-2.1-35.28-2.47-36.33,1.05-.56,1.88,8.6,4.33,12.71,5.25,26.26,5.84,61.92-3,61.76-9.44,0-2.13-4-4.14-16.35-7.34-23.92-6.2-57.42-11.14-156.2-7.34a211.36,211.36,0,0,0-36.33,4.19c-6.6,1.38-17.87,3.66-25.43,7.34-20.34,9.91-23.17,30.17-12.72,40.9a18.21,18.21,0,0,1,3.64,4.2c5,8.93-5.88,18.22-9.08,21-30.11,25.82-141.07,21.62-158,21-7.56-.28-11.76-.5-20-1-36.84-2.45-69.18-4.59-74.47-13.64-2.55-4.36,2-8.89,3.63-10.48,18.8-18.64,79.82-14.34,118.07-11.54a57.22,57.22,0,0,1,14.53,3.15c2.76,1,4.77,1.78,5.45,3.14,1.71,3.41-5.84,8.67-12.72,8.39-3.76-.15-7.57-2-7.26-3.14.26-1,3.33-1.09,3.63-2.1.4-1.37-4.69-2.92-5.45-3.15-10.51-3.2-34.91-4.76-38.14,0-1.93,2.84,4.17,7.16,9.08,9.44,24.93,11.6,82.12,0,83.55-10.49.33-2.37-2.23-4.61-7.26-7.34-32.68-17.73-97.89-17.45-147.13-7.34-12.35,2.54-25.44,5.23-40,11.54-22.55,9.8-25.14,18.16-45.41,26.21-5.77,2.3-17.47,6.35-47.22,9.44-23.3,2.42-77.22,9.54-141.68-1.05-3.67-.6-16.68-1.61-30.88-6.29-8.66-2.85-24.41-8-25.43-15.73-.84-6.37,8.8-11.54,12.72-13.63,0,0,39.36-21.42,125.33-2.1a17.45,17.45,0,0,1,5.44,2.1c3.35,2.08,5.07,5.47,3.64,8.39-3.2,6.51-20.55,7.54-21.8,6.29-.68-.67,3.52-1.85,3.63-4.19.17-3.25-7.63-5.82-9.08-6.3-14-4.62-38-2.22-41.78,4.2-2.22,3.75,3,7.91,3.64,8.39,20.35,15.7,103.25,4.81,107.16-7.34a6.74,6.74,0,0,0,0-3.15c-1.56-7.22-13.36-11.78-18.16-13.63-27-10.42-74.47-9.44-74.47-9.44-33,.68-47.85,3-87.19,6.29-58.11,4.92-91.11,5.48-125.33,1.05-29.48-3.82-40.81-8.87-43.59-14.68-2.49-5.21,2.31-10.17,3.63-11.54C99.73,735.15,197.8,749,201,749.49c9.71,1.38,13.13,3.86,14.53,5.24.37.36,3.27,3.31,1.82,6.29-3.66,7.55-31.89,8.69-32.69,7.34-.44-.73,7.37-2,7.26-4.19-.14-3-14.69-5-16.35-5.25-15.21-2-36.59-.95-38.14,3.15-1.62,4.3,18.65,11.76,38.14,13.63a116.94,116.94,0,0,0,29.07-1.05c9-1.28,35.82-5.09,43.59-16.77,4.23-6.37,1.11-12.51,0-14.69C233.86,715,119.09,701.51,117.47,688.66,112.94,652.76,990.28,607.58,1150.08,687.09Z" transform="translate(-71.36 -642.94)"/></g></g></svg>